<?xml version="1.0" encoding="UTF-8"?>
<svg xmlns="http://www.w3.org/2000/svg" xmlns:xlink="http://www.w3.org/1999/xlink" width="432pt" height="252pt" viewBox="0 0 432 252">
<defs>
<g>
<g id="glyph-0-0">
<path d="M 1.71875 -3.421875 L 1.71875 0 L 0.765625 0 L 0.765625 -4.65625 L 1.71875 -4.65625 L 1.71875 -4.3125 L 1.75 -4.28125 C 1.96875 -4.4375 2.191406 -4.550781 2.421875 -4.625 C 2.648438 -4.707031 2.890625 -4.75 3.140625 -4.75 C 3.597656 -4.75 3.941406 -4.625 4.171875 -4.375 C 4.398438 -4.125 4.515625 -3.753906 4.515625 -3.265625 L 4.515625 0 L 3.5625 0 L 3.5625 -2.9375 C 3.5625 -3.289062 3.507812 -3.535156 3.40625 -3.671875 C 3.3125 -3.816406 3.140625 -3.890625 2.890625 -3.890625 C 2.671875 -3.890625 2.445312 -3.84375 2.21875 -3.75 C 1.988281 -3.664062 1.820312 -3.554688 1.71875 -3.421875 Z M 1.71875 -3.421875 "/>
</g>
<g id="glyph-0-1">
<path d="M 5.328125 -3.78125 L 5.328125 -2.921875 L 0.859375 -2.921875 L 0.859375 -3.78125 Z M 5.328125 -1.71875 L 5.328125 -0.859375 L 0.859375 -0.859375 L 0.859375 -1.71875 Z M 5.328125 -1.71875 "/>
</g>
<g id="glyph-0-2">
<path d="M 4.203125 -0.875 L 4.203125 0 L 0.59375 0 L 0.59375 -0.875 L 1.90625 -0.875 L 1.90625 -4.8125 L 0.515625 -4.8125 L 0.515625 -5.578125 C 0.628906 -5.578125 0.738281 -5.582031 0.84375 -5.59375 C 0.945312 -5.613281 1.046875 -5.632812 1.140625 -5.65625 C 1.242188 -5.6875 1.335938 -5.726562 1.421875 -5.78125 C 1.515625 -5.832031 1.59375 -5.890625 1.65625 -5.953125 C 1.738281 -6.046875 1.800781 -6.132812 1.84375 -6.21875 C 1.882812 -6.3125 1.90625 -6.410156 1.90625 -6.515625 L 2.890625 -6.515625 L 2.890625 -0.875 Z M 4.203125 -0.875 "/>
</g>
<g id="glyph-0-3">
<path d="M 4.9375 -2.078125 C 4.9375 -1.453125 4.738281 -0.929688 4.34375 -0.515625 C 3.945312 -0.109375 3.429688 0.09375 2.796875 0.09375 C 2.078125 0.09375 1.53125 -0.171875 1.15625 -0.703125 C 0.78125 -1.242188 0.59375 -2.019531 0.59375 -3.03125 C 0.59375 -4.175781 0.820312 -5.054688 1.28125 -5.671875 C 1.738281 -6.296875 2.398438 -6.609375 3.265625 -6.609375 C 3.472656 -6.609375 3.691406 -6.582031 3.921875 -6.53125 C 4.160156 -6.488281 4.390625 -6.425781 4.609375 -6.34375 L 4.609375 -5.359375 C 4.359375 -5.484375 4.125 -5.570312 3.90625 -5.625 C 3.6875 -5.6875 3.484375 -5.71875 3.296875 -5.71875 C 2.734375 -5.71875 2.304688 -5.539062 2.015625 -5.1875 C 1.722656 -4.84375 1.578125 -4.332031 1.578125 -3.65625 C 1.773438 -3.800781 1.988281 -3.910156 2.21875 -3.984375 C 2.445312 -4.054688 2.679688 -4.09375 2.921875 -4.09375 C 3.535156 -4.09375 4.023438 -3.910156 4.390625 -3.546875 C 4.753906 -3.179688 4.9375 -2.691406 4.9375 -2.078125 Z M 3.9375 -2 C 3.9375 -2.40625 3.828125 -2.71875 3.609375 -2.9375 C 3.398438 -3.15625 3.097656 -3.265625 2.703125 -3.265625 C 2.472656 -3.265625 2.257812 -3.226562 2.0625 -3.15625 C 1.875 -3.082031 1.710938 -2.984375 1.578125 -2.859375 C 1.578125 -2.160156 1.679688 -1.632812 1.890625 -1.28125 C 2.097656 -0.925781 2.40625 -0.75 2.8125 -0.75 C 3.164062 -0.75 3.441406 -0.859375 3.640625 -1.078125 C 3.835938 -1.304688 3.9375 -1.613281 3.9375 -2 Z M 3.9375 -2 "/>
</g>
<g id="glyph-0-4">
<path d="M 4.359375 -0.875 L 4.359375 0 L 0.515625 0 L 0.515625 -1.046875 C 0.984375 -1.492188 1.332031 -1.832031 1.5625 -2.0625 C 1.800781 -2.300781 2.003906 -2.507812 2.171875 -2.6875 C 2.554688 -3.101562 2.832031 -3.472656 3 -3.796875 C 3.175781 -4.117188 3.265625 -4.414062 3.265625 -4.6875 C 3.265625 -5.019531 3.164062 -5.273438 2.96875 -5.453125 C 2.78125 -5.640625 2.515625 -5.734375 2.171875 -5.734375 C 1.898438 -5.734375 1.617188 -5.675781 1.328125 -5.5625 C 1.046875 -5.445312 0.804688 -5.300781 0.609375 -5.125 L 0.609375 -6.078125 C 0.835938 -6.242188 1.097656 -6.375 1.390625 -6.46875 C 1.679688 -6.5625 1.972656 -6.609375 2.265625 -6.609375 C 2.898438 -6.609375 3.390625 -6.441406 3.734375 -6.109375 C 4.085938 -5.773438 4.265625 -5.300781 4.265625 -4.6875 C 4.265625 -4.195312 4.085938 -3.6875 3.734375 -3.15625 C 3.378906 -2.632812 2.6875 -1.882812 1.65625 -0.90625 L 1.6875 -0.875 Z M 4.359375 -0.875 "/>
</g>
<g id="glyph-0-5">
<path d="M 1.71875 -3.4375 L 1.71875 0 L 0.765625 0 L 0.765625 -4.65625 L 1.71875 -4.65625 L 1.71875 -4.3125 L 1.75 -4.28125 C 1.96875 -4.4375 2.1875 -4.550781 2.40625 -4.625 C 2.632812 -4.707031 2.867188 -4.75 3.109375 -4.75 C 3.390625 -4.75 3.625 -4.703125 3.8125 -4.609375 C 4 -4.515625 4.140625 -4.378906 4.234375 -4.203125 C 4.460938 -4.378906 4.707031 -4.515625 4.96875 -4.609375 C 5.238281 -4.703125 5.515625 -4.75 5.796875 -4.75 C 6.265625 -4.75 6.609375 -4.625 6.828125 -4.375 C 7.054688 -4.132812 7.171875 -3.765625 7.171875 -3.265625 L 7.171875 0 L 6.203125 0 L 6.203125 -2.9375 C 6.203125 -3.28125 6.148438 -3.523438 6.046875 -3.671875 C 5.941406 -3.816406 5.769531 -3.890625 5.53125 -3.890625 C 5.320312 -3.890625 5.109375 -3.84375 4.890625 -3.75 C 4.679688 -3.664062 4.53125 -3.554688 4.4375 -3.421875 L 4.4375 0 L 3.484375 0 L 3.484375 -2.890625 C 3.484375 -3.265625 3.429688 -3.523438 3.328125 -3.671875 C 3.234375 -3.816406 3.0625 -3.890625 2.8125 -3.890625 C 2.59375 -3.890625 2.378906 -3.847656 2.171875 -3.765625 C 1.960938 -3.679688 1.8125 -3.570312 1.71875 -3.4375 Z M 1.71875 -3.4375 "/>
</g>
<g id="glyph-0-6">
<path d="M 4.0625 -7.015625 L 2.34375 -5.515625 L 1.84375 -6.015625 L 3.234375 -7.703125 Z M 4.140625 -0.171875 C 3.898438 -0.078125 3.664062 -0.0078125 3.4375 0.03125 C 3.21875 0.0703125 2.992188 0.09375 2.765625 0.09375 C 2.023438 0.09375 1.445312 -0.113281 1.03125 -0.53125 C 0.625 -0.945312 0.421875 -1.535156 0.421875 -2.296875 C 0.421875 -3.035156 0.613281 -3.628906 1 -4.078125 C 1.394531 -4.523438 1.921875 -4.75 2.578125 -4.75 C 3.140625 -4.75 3.570312 -4.578125 3.875 -4.234375 C 4.1875 -3.898438 4.34375 -3.429688 4.34375 -2.828125 C 4.34375 -2.691406 4.332031 -2.546875 4.3125 -2.390625 C 4.300781 -2.242188 4.273438 -2.097656 4.234375 -1.953125 L 1.359375 -1.953125 C 1.410156 -1.546875 1.550781 -1.242188 1.78125 -1.046875 C 2.019531 -0.847656 2.347656 -0.75 2.765625 -0.75 C 2.984375 -0.75 3.207031 -0.769531 3.4375 -0.8125 C 3.664062 -0.863281 3.898438 -0.941406 4.140625 -1.046875 Z M 3.46875 -3 C 3.476562 -3.300781 3.394531 -3.539062 3.21875 -3.71875 C 3.039062 -3.894531 2.800781 -3.984375 2.5 -3.984375 C 2.164062 -3.984375 1.898438 -3.867188 1.703125 -3.640625 C 1.503906 -3.421875 1.390625 -3.109375 1.359375 -2.703125 L 3.453125 -2.703125 C 3.453125 -2.742188 3.453125 -2.789062 3.453125 -2.84375 C 3.460938 -2.90625 3.46875 -2.957031 3.46875 -3 Z M 3.46875 -3 "/>
</g>
<g id="glyph-0-7">
<path d="M 3.375 -0.359375 C 3.238281 -0.210938 3.066406 -0.0976562 2.859375 -0.015625 C 2.660156 0.0546875 2.453125 0.09375 2.234375 0.09375 C 1.703125 0.09375 1.265625 -0.125 0.921875 -0.5625 C 0.585938 -1.007812 0.421875 -1.582031 0.421875 -2.28125 C 0.421875 -3.007812 0.609375 -3.601562 0.984375 -4.0625 C 1.367188 -4.519531 1.878906 -4.75 2.515625 -4.75 C 2.710938 -4.75 2.878906 -4.726562 3.015625 -4.6875 C 3.160156 -4.65625 3.28125 -4.601562 3.375 -4.53125 L 3.40625 -4.5625 L 3.40625 -6.75 L 4.375 -6.75 L 4.375 0 L 3.40625 0 L 3.40625 -0.328125 Z M 3.40625 -3.65625 C 3.320312 -3.726562 3.207031 -3.78125 3.0625 -3.8125 C 2.925781 -3.851562 2.785156 -3.875 2.640625 -3.875 C 2.253906 -3.875 1.945312 -3.734375 1.71875 -3.453125 C 1.5 -3.179688 1.390625 -2.800781 1.390625 -2.3125 C 1.390625 -1.832031 1.488281 -1.453125 1.6875 -1.171875 C 1.882812 -0.890625 2.15625 -0.75 2.5 -0.75 C 2.695312 -0.75 2.875 -0.796875 3.03125 -0.890625 C 3.195312 -0.984375 3.320312 -1.097656 3.40625 -1.234375 Z M 3.40625 -3.65625 "/>
</g>
<g id="glyph-0-8">
<path d="M 1.90625 -6.40625 C 1.90625 -6.21875 1.84375 -6.054688 1.71875 -5.921875 C 1.59375 -5.796875 1.4375 -5.734375 1.25 -5.734375 C 1.0625 -5.734375 0.898438 -5.796875 0.765625 -5.921875 C 0.640625 -6.054688 0.578125 -6.21875 0.578125 -6.40625 C 0.578125 -6.59375 0.640625 -6.75 0.765625 -6.875 C 0.898438 -7.007812 1.0625 -7.078125 1.25 -7.078125 C 1.4375 -7.078125 1.59375 -7.007812 1.71875 -6.875 C 1.84375 -6.75 1.90625 -6.59375 1.90625 -6.40625 Z M 1.71875 -4.65625 L 1.71875 0 L 0.765625 0 L 0.765625 -4.65625 Z M 1.71875 -4.65625 "/>
</g>
<g id="glyph-0-9">
<path d="M 3.28125 -0.4375 C 3.132812 -0.28125 2.941406 -0.148438 2.703125 -0.046875 C 2.472656 0.046875 2.222656 0.09375 1.953125 0.09375 C 1.515625 0.09375 1.164062 -0.0351562 0.90625 -0.296875 C 0.644531 -0.554688 0.515625 -0.898438 0.515625 -1.328125 C 0.515625 -1.804688 0.6875 -2.175781 1.03125 -2.4375 C 1.382812 -2.695312 1.890625 -2.828125 2.546875 -2.828125 L 3.1875 -2.828125 C 3.195312 -2.835938 3.203125 -2.851562 3.203125 -2.875 C 3.203125 -2.90625 3.203125 -2.945312 3.203125 -3 C 3.203125 -3.332031 3.128906 -3.5625 2.984375 -3.6875 C 2.835938 -3.820312 2.585938 -3.890625 2.234375 -3.890625 C 1.992188 -3.890625 1.765625 -3.863281 1.546875 -3.8125 C 1.328125 -3.757812 1.097656 -3.675781 0.859375 -3.5625 L 0.859375 -4.4375 C 0.953125 -4.488281 1.0625 -4.53125 1.1875 -4.5625 C 1.320312 -4.601562 1.46875 -4.640625 1.625 -4.671875 C 1.75 -4.691406 1.878906 -4.707031 2.015625 -4.71875 C 2.160156 -4.738281 2.296875 -4.75 2.421875 -4.75 C 3.035156 -4.75 3.472656 -4.597656 3.734375 -4.296875 C 4.003906 -4.003906 4.140625 -3.53125 4.140625 -2.875 L 4.140625 0 L 3.453125 0 L 3.3125 -0.421875 Z M 2.640625 -2.109375 C 2.242188 -2.109375 1.945312 -2.050781 1.75 -1.9375 C 1.5625 -1.832031 1.46875 -1.65625 1.46875 -1.40625 C 1.46875 -1.175781 1.53125 -1 1.65625 -0.875 C 1.78125 -0.757812 1.960938 -0.703125 2.203125 -0.703125 C 2.429688 -0.703125 2.644531 -0.75 2.84375 -0.84375 C 3.039062 -0.9375 3.179688 -1.050781 3.265625 -1.1875 L 3.265625 -2.109375 Z M 2.640625 -2.109375 "/>
</g>
<g id="glyph-0-10">
<path d="M 4.140625 -0.171875 C 3.898438 -0.078125 3.664062 -0.0078125 3.4375 0.03125 C 3.21875 0.0703125 2.992188 0.09375 2.765625 0.09375 C 2.023438 0.09375 1.445312 -0.113281 1.03125 -0.53125 C 0.625 -0.945312 0.421875 -1.535156 0.421875 -2.296875 C 0.421875 -3.035156 0.613281 -3.628906 1 -4.078125 C 1.394531 -4.523438 1.921875 -4.75 2.578125 -4.75 C 3.140625 -4.75 3.570312 -4.578125 3.875 -4.234375 C 4.1875 -3.898438 4.34375 -3.429688 4.34375 -2.828125 C 4.34375 -2.691406 4.332031 -2.546875 4.3125 -2.390625 C 4.300781 -2.242188 4.273438 -2.097656 4.234375 -1.953125 L 1.359375 -1.953125 C 1.410156 -1.546875 1.550781 -1.242188 1.78125 -1.046875 C 2.019531 -0.847656 2.347656 -0.75 2.765625 -0.75 C 2.984375 -0.75 3.207031 -0.769531 3.4375 -0.8125 C 3.664062 -0.863281 3.898438 -0.941406 4.140625 -1.046875 Z M 3.46875 -3 C 3.476562 -3.300781 3.394531 -3.539062 3.21875 -3.71875 C 3.039062 -3.894531 2.800781 -3.984375 2.5 -3.984375 C 2.164062 -3.984375 1.898438 -3.867188 1.703125 -3.640625 C 1.503906 -3.421875 1.390625 -3.109375 1.359375 -2.703125 L 3.453125 -2.703125 C 3.453125 -2.742188 3.453125 -2.789062 3.453125 -2.84375 C 3.460938 -2.90625 3.46875 -2.957031 3.46875 -3 Z M 3.46875 -3 "/>
</g>
<g id="glyph-0-11">
<path d="M 5.296875 -3.25 C 5.296875 -2.15625 5.097656 -1.320312 4.703125 -0.75 C 4.304688 -0.1875 3.71875 0.09375 2.9375 0.09375 C 2.164062 0.09375 1.582031 -0.1875 1.1875 -0.75 C 0.789062 -1.320312 0.59375 -2.15625 0.59375 -3.25 C 0.59375 -4.34375 0.789062 -5.175781 1.1875 -5.75 C 1.582031 -6.320312 2.164062 -6.609375 2.9375 -6.609375 C 3.71875 -6.609375 4.304688 -6.320312 4.703125 -5.75 C 5.097656 -5.175781 5.296875 -4.34375 5.296875 -3.25 Z M 4.296875 -3.25 C 4.296875 -4.09375 4.179688 -4.710938 3.953125 -5.109375 C 3.734375 -5.503906 3.394531 -5.703125 2.9375 -5.703125 C 2.488281 -5.703125 2.15625 -5.503906 1.9375 -5.109375 C 1.71875 -4.710938 1.609375 -4.09375 1.609375 -3.25 C 1.609375 -2.40625 1.71875 -1.785156 1.9375 -1.390625 C 2.15625 -0.992188 2.488281 -0.796875 2.9375 -0.796875 C 3.394531 -0.796875 3.734375 -0.992188 3.953125 -1.390625 C 4.179688 -1.785156 4.296875 -2.40625 4.296875 -3.25 Z M 4.296875 -3.25 "/>
</g>
<g id="glyph-0-12">
<path d="M 1.9375 -0.734375 L 0.71875 1.40625 L 0.078125 1.09375 L 0.9375 -1.109375 Z M 1.9375 -0.734375 "/>
</g>
<g id="glyph-0-13">
<path d="M 3.21875 0 L 3.21875 -1.53125 L 0.421875 -1.53125 L 0.421875 -2.34375 L 3.046875 -6.515625 L 4.203125 -6.515625 L 4.203125 -2.34375 L 4.953125 -2.34375 L 4.953125 -1.53125 L 4.203125 -1.53125 L 4.203125 0 Z M 1.46875 -2.34375 L 3.21875 -2.34375 L 3.21875 -5.40625 L 3.203125 -5.40625 C 3.179688 -5.34375 3.148438 -5.269531 3.109375 -5.1875 C 3.066406 -5.101562 2.914062 -4.84375 2.65625 -4.40625 L 1.4375 -2.375 Z M 1.46875 -2.34375 "/>
</g>
<g id="glyph-1-0">
<path d="M 5.46875 -3.359375 C 5.46875 -2.222656 5.257812 -1.363281 4.84375 -0.78125 C 4.4375 -0.195312 3.832031 0.09375 3.03125 0.09375 C 2.238281 0.09375 1.632812 -0.195312 1.21875 -0.78125 C 0.8125 -1.363281 0.609375 -2.222656 0.609375 -3.359375 C 0.609375 -4.484375 0.8125 -5.335938 1.21875 -5.921875 C 1.632812 -6.515625 2.238281 -6.8125 3.03125 -6.8125 C 3.832031 -6.8125 4.4375 -6.515625 4.84375 -5.921875 C 5.257812 -5.335938 5.46875 -4.484375 5.46875 -3.359375 Z M 4.421875 -3.359375 C 4.421875 -4.222656 4.304688 -4.859375 4.078125 -5.265625 C 3.847656 -5.679688 3.5 -5.890625 3.03125 -5.890625 C 2.5625 -5.890625 2.210938 -5.679688 1.984375 -5.265625 C 1.765625 -4.859375 1.65625 -4.222656 1.65625 -3.359375 C 1.65625 -2.484375 1.765625 -1.84375 1.984375 -1.4375 C 2.210938 -1.03125 2.5625 -0.828125 3.03125 -0.828125 C 3.5 -0.828125 3.847656 -1.03125 4.078125 -1.4375 C 4.304688 -1.84375 4.421875 -2.484375 4.421875 -3.359375 Z M 4.421875 -3.359375 "/>
</g>
<g id="glyph-1-1">
<path d="M 2 -0.75 L 0.75 1.453125 L 0.09375 1.125 L 0.953125 -1.140625 Z M 2 -0.75 "/>
</g>
<g id="glyph-1-2">
<path d="M 4.5 -0.90625 L 4.5 0 L 0.53125 0 L 0.53125 -1.078125 C 1.019531 -1.546875 1.382812 -1.894531 1.625 -2.125 C 1.863281 -2.363281 2.066406 -2.578125 2.234375 -2.765625 C 2.628906 -3.203125 2.914062 -3.582031 3.09375 -3.90625 C 3.28125 -4.238281 3.375 -4.546875 3.375 -4.828125 C 3.375 -5.171875 3.269531 -5.4375 3.0625 -5.625 C 2.863281 -5.8125 2.585938 -5.90625 2.234375 -5.90625 C 1.960938 -5.90625 1.675781 -5.847656 1.375 -5.734375 C 1.082031 -5.617188 0.832031 -5.46875 0.625 -5.28125 L 0.625 -6.265625 C 0.863281 -6.441406 1.132812 -6.578125 1.4375 -6.671875 C 1.738281 -6.765625 2.039062 -6.8125 2.34375 -6.8125 C 3 -6.8125 3.503906 -6.640625 3.859375 -6.296875 C 4.222656 -5.953125 4.40625 -5.460938 4.40625 -4.828125 C 4.40625 -4.328125 4.21875 -3.804688 3.84375 -3.265625 C 3.476562 -2.722656 2.765625 -1.945312 1.703125 -0.9375 L 1.734375 -0.90625 Z M 4.5 -0.90625 "/>
</g>
<g id="glyph-1-3">
<path d="M 2.265625 0.09375 C 2.117188 0.09375 1.976562 0.0859375 1.84375 0.078125 C 1.707031 0.0664062 1.578125 0.046875 1.453125 0.015625 C 1.285156 -0.015625 1.140625 -0.0507812 1.015625 -0.09375 C 0.890625 -0.144531 0.785156 -0.203125 0.703125 -0.265625 L 0.703125 -1.265625 C 0.785156 -1.191406 0.890625 -1.125 1.015625 -1.0625 C 1.148438 -1.007812 1.300781 -0.960938 1.46875 -0.921875 C 1.601562 -0.878906 1.738281 -0.847656 1.875 -0.828125 C 2.007812 -0.816406 2.15625 -0.8125 2.3125 -0.8125 C 2.71875 -0.8125 3.039062 -0.921875 3.28125 -1.140625 C 3.519531 -1.359375 3.640625 -1.648438 3.640625 -2.015625 C 3.640625 -2.335938 3.550781 -2.59375 3.375 -2.78125 C 3.195312 -2.96875 2.925781 -3.097656 2.5625 -3.171875 C 2.414062 -3.191406 2.242188 -3.207031 2.046875 -3.21875 C 1.859375 -3.226562 1.453125 -3.210938 0.828125 -3.171875 L 0.828125 -6.71875 L 4.3125 -6.71875 L 4.3125 -5.8125 L 1.84375 -5.8125 L 1.84375 -4.0625 C 2.75 -4.132812 3.445312 -3.992188 3.9375 -3.640625 C 4.425781 -3.296875 4.671875 -2.773438 4.671875 -2.078125 C 4.671875 -1.441406 4.453125 -0.921875 4.015625 -0.515625 C 3.578125 -0.109375 2.992188 0.09375 2.265625 0.09375 Z M 2.265625 0.09375 "/>
</g>
<g id="glyph-1-4">
<path d="M 4.34375 -5.734375 L 1.796875 0 L 0.75 0 L 3.359375 -5.78125 L 3.328125 -5.8125 L 0.265625 -5.8125 L 0.265625 -6.71875 L 4.34375 -6.71875 Z M 4.34375 -5.734375 "/>
</g>
<g id="glyph-1-5">
<path d="M 4.328125 -0.90625 L 4.328125 0 L 0.609375 0 L 0.609375 -0.90625 L 1.96875 -0.90625 L 1.96875 -4.96875 L 0.53125 -4.96875 L 0.53125 -5.75 C 0.65625 -5.75 0.769531 -5.753906 0.875 -5.765625 C 0.976562 -5.785156 1.078125 -5.804688 1.171875 -5.828125 C 1.285156 -5.867188 1.382812 -5.910156 1.46875 -5.953125 C 1.5625 -6.003906 1.640625 -6.066406 1.703125 -6.140625 C 1.796875 -6.234375 1.863281 -6.328125 1.90625 -6.421875 C 1.945312 -6.515625 1.96875 -6.613281 1.96875 -6.71875 L 2.96875 -6.71875 L 2.96875 -0.90625 Z M 4.328125 -0.90625 "/>
</g>
<g id="glyph-1-6">
<path d="M 5.3125 -1.84375 C 5.3125 -1.28125 5.082031 -0.816406 4.625 -0.453125 C 4.175781 -0.0859375 3.625 0.09375 2.96875 0.09375 C 2.257812 0.09375 1.6875 -0.0703125 1.25 -0.40625 C 0.820312 -0.75 0.609375 -1.203125 0.609375 -1.765625 C 0.609375 -2.128906 0.710938 -2.460938 0.921875 -2.765625 C 1.140625 -3.078125 1.441406 -3.34375 1.828125 -3.5625 C 1.515625 -3.71875 1.273438 -3.921875 1.109375 -4.171875 C 0.941406 -4.421875 0.859375 -4.695312 0.859375 -5 C 0.859375 -5.519531 1.054688 -5.953125 1.453125 -6.296875 C 1.859375 -6.640625 2.367188 -6.8125 2.984375 -6.8125 C 3.585938 -6.8125 4.078125 -6.648438 4.453125 -6.328125 C 4.828125 -6.015625 5.015625 -5.613281 5.015625 -5.125 C 5.015625 -4.800781 4.925781 -4.503906 4.75 -4.234375 C 4.582031 -3.960938 4.351562 -3.753906 4.0625 -3.609375 C 4.488281 -3.390625 4.800781 -3.132812 5 -2.84375 C 5.207031 -2.550781 5.3125 -2.21875 5.3125 -1.84375 Z M 4 -4.96875 C 4 -5.269531 3.898438 -5.507812 3.703125 -5.6875 C 3.515625 -5.875 3.253906 -5.96875 2.921875 -5.96875 C 2.617188 -5.96875 2.367188 -5.878906 2.171875 -5.703125 C 1.984375 -5.523438 1.890625 -5.304688 1.890625 -5.046875 C 1.890625 -4.796875 2 -4.578125 2.21875 -4.390625 C 2.4375 -4.210938 2.78125 -4.054688 3.25 -3.921875 C 3.476562 -4.035156 3.660156 -4.179688 3.796875 -4.359375 C 3.929688 -4.546875 4 -4.75 4 -4.96875 Z M 4.28125 -1.84375 C 4.28125 -2.125 4.132812 -2.378906 3.84375 -2.609375 C 3.550781 -2.835938 3.125 -3.023438 2.5625 -3.171875 C 2.289062 -3.046875 2.066406 -2.867188 1.890625 -2.640625 C 1.722656 -2.421875 1.640625 -2.175781 1.640625 -1.90625 C 1.640625 -1.550781 1.753906 -1.269531 1.984375 -1.0625 C 2.222656 -0.851562 2.535156 -0.75 2.921875 -0.75 C 3.335938 -0.75 3.664062 -0.847656 3.90625 -1.046875 C 4.15625 -1.242188 4.28125 -1.507812 4.28125 -1.84375 Z M 4.28125 -1.84375 "/>
</g>
<g id="glyph-1-7">
<path d="M 3.328125 0 L 3.328125 -1.578125 L 0.4375 -1.578125 L 0.4375 -2.421875 L 3.140625 -6.71875 L 4.34375 -6.71875 L 4.34375 -2.421875 L 5.109375 -2.421875 L 5.109375 -1.578125 L 4.34375 -1.578125 L 4.34375 0 Z M 1.515625 -2.421875 L 3.328125 -2.421875 L 3.328125 -5.5625 L 3.296875 -5.5625 C 3.273438 -5.5 3.242188 -5.425781 3.203125 -5.34375 C 3.160156 -5.257812 3.003906 -4.992188 2.734375 -4.546875 L 1.484375 -2.453125 Z M 1.515625 -2.421875 "/>
</g>
<g id="glyph-2-0">
<path d="M 5.25 -1.46875 L 5.25 0 L 0.71875 0 L 0.71875 -6.859375 L 5.140625 -6.859375 L 5.140625 -5.390625 L 2.6875 -5.390625 L 2.6875 -4.21875 L 4.96875 -4.21875 L 4.96875 -2.75 L 2.6875 -2.75 L 2.6875 -1.46875 Z M 5.25 -1.46875 "/>
</g>
<g id="glyph-2-1">
<path d="M 2.8125 -3.5625 L 2.8125 0 L 1.015625 0 L 1.015625 -3.5625 L 0.265625 -3.5625 L 0.265625 -4.90625 L 1.015625 -4.90625 C 1.066406 -5.675781 1.28125 -6.25 1.65625 -6.625 C 2.03125 -7.007812 2.578125 -7.203125 3.296875 -7.203125 C 3.492188 -7.203125 3.703125 -7.1875 3.921875 -7.15625 C 4.140625 -7.132812 4.359375 -7.09375 4.578125 -7.03125 L 4.578125 -5.578125 C 4.390625 -5.628906 4.210938 -5.664062 4.046875 -5.6875 C 3.890625 -5.71875 3.71875 -5.734375 3.53125 -5.734375 C 3.28125 -5.734375 3.097656 -5.671875 2.984375 -5.546875 C 2.867188 -5.421875 2.8125 -5.207031 2.8125 -4.90625 L 4.109375 -4.90625 L 4.109375 -3.5625 Z M 7.125 -3.5625 L 7.125 0 L 5.3125 0 L 5.3125 -3.5625 L 4.578125 -3.5625 L 4.578125 -4.90625 L 5.328125 -4.90625 C 5.378906 -5.675781 5.59375 -6.25 5.96875 -6.625 C 6.34375 -7.007812 6.890625 -7.203125 7.609375 -7.203125 C 7.804688 -7.203125 8.015625 -7.1875 8.234375 -7.15625 C 8.453125 -7.132812 8.671875 -7.09375 8.890625 -7.03125 L 8.890625 -5.578125 C 8.703125 -5.628906 8.523438 -5.664062 8.359375 -5.6875 C 8.203125 -5.71875 8.03125 -5.734375 7.84375 -5.734375 C 7.59375 -5.734375 7.410156 -5.671875 7.296875 -5.546875 C 7.179688 -5.421875 7.125 -5.207031 7.125 -4.90625 L 8.421875 -4.90625 L 8.421875 -3.5625 Z M 7.125 -3.5625 "/>
</g>
<g id="glyph-2-2">
<path d="M 4.703125 -0.1875 C 4.429688 -0.09375 4.15625 -0.0234375 3.875 0.015625 C 3.59375 0.0664062 3.300781 0.09375 3 0.09375 C 2.195312 0.09375 1.554688 -0.140625 1.078125 -0.609375 C 0.597656 -1.078125 0.359375 -1.710938 0.359375 -2.515625 C 0.359375 -3.265625 0.578125 -3.863281 1.015625 -4.3125 C 1.460938 -4.769531 2.0625 -5 2.8125 -5 C 3.476562 -5 3.992188 -4.820312 4.359375 -4.46875 C 4.722656 -4.113281 4.90625 -3.613281 4.90625 -2.96875 C 4.90625 -2.800781 4.890625 -2.632812 4.859375 -2.46875 C 4.835938 -2.300781 4.804688 -2.144531 4.765625 -2 L 2.0625 -2 C 2.113281 -1.738281 2.226562 -1.550781 2.40625 -1.4375 C 2.582031 -1.320312 2.84375 -1.265625 3.1875 -1.265625 C 3.394531 -1.265625 3.601562 -1.28125 3.8125 -1.3125 C 4.019531 -1.351562 4.316406 -1.429688 4.703125 -1.546875 Z M 3.4375 -3.234375 C 3.4375 -3.441406 3.378906 -3.601562 3.265625 -3.71875 C 3.148438 -3.832031 2.984375 -3.890625 2.765625 -3.890625 C 2.535156 -3.890625 2.351562 -3.816406 2.21875 -3.671875 C 2.09375 -3.523438 2.03125 -3.304688 2.03125 -3.015625 L 3.421875 -3.015625 C 3.421875 -3.023438 3.421875 -3.039062 3.421875 -3.0625 C 3.429688 -3.09375 3.4375 -3.148438 3.4375 -3.234375 Z M 3.4375 -3.234375 "/>
</g>
<g id="glyph-2-3">
<path d="M 4.234375 -0.25 C 4.003906 -0.132812 3.769531 -0.0507812 3.53125 0 C 3.289062 0.0625 3.046875 0.09375 2.796875 0.09375 C 2.054688 0.09375 1.460938 -0.140625 1.015625 -0.609375 C 0.578125 -1.078125 0.359375 -1.691406 0.359375 -2.453125 C 0.359375 -3.234375 0.570312 -3.851562 1 -4.3125 C 1.425781 -4.769531 2.023438 -5 2.796875 -5 C 3.085938 -5 3.347656 -4.96875 3.578125 -4.90625 C 3.804688 -4.851562 4.015625 -4.769531 4.203125 -4.65625 L 4.203125 -3.1875 C 4.035156 -3.300781 3.84375 -3.394531 3.625 -3.46875 C 3.414062 -3.539062 3.203125 -3.578125 2.984375 -3.578125 C 2.710938 -3.578125 2.503906 -3.484375 2.359375 -3.296875 C 2.222656 -3.109375 2.15625 -2.832031 2.15625 -2.46875 C 2.15625 -2.113281 2.222656 -1.84375 2.359375 -1.65625 C 2.503906 -1.46875 2.710938 -1.375 2.984375 -1.375 C 3.210938 -1.375 3.4375 -1.40625 3.65625 -1.46875 C 3.875 -1.539062 4.066406 -1.640625 4.234375 -1.765625 Z M 4.234375 -0.25 "/>
</g>
<g id="glyph-2-4">
<path d="M 4.234375 -0.109375 C 4.035156 -0.046875 3.828125 0 3.609375 0.03125 C 3.390625 0.0703125 3.164062 0.09375 2.9375 0.09375 C 2.332031 0.09375 1.851562 -0.0664062 1.5 -0.390625 C 1.144531 -0.710938 0.96875 -1.15625 0.96875 -1.71875 L 0.96875 -3.5625 L 0.1875 -3.5625 L 0.1875 -4.90625 L 0.96875 -4.90625 L 0.96875 -6.203125 L 2.765625 -6.203125 L 2.765625 -4.90625 L 4.140625 -4.90625 L 4.140625 -3.5625 L 2.765625 -3.5625 L 2.765625 -2.296875 C 2.765625 -1.972656 2.8125 -1.75 2.90625 -1.625 C 3.007812 -1.507812 3.179688 -1.453125 3.421875 -1.453125 C 3.523438 -1.453125 3.644531 -1.460938 3.78125 -1.484375 C 3.914062 -1.503906 4.066406 -1.535156 4.234375 -1.578125 Z M 4.234375 -0.109375 "/>
</g>
<g id="glyph-2-5">
<path d="M 2.703125 -6.703125 C 2.703125 -6.398438 2.597656 -6.144531 2.390625 -5.9375 C 2.179688 -5.738281 1.925781 -5.640625 1.625 -5.640625 C 1.3125 -5.640625 1.050781 -5.738281 0.84375 -5.9375 C 0.644531 -6.144531 0.546875 -6.398438 0.546875 -6.703125 C 0.546875 -6.992188 0.644531 -7.238281 0.84375 -7.4375 C 1.050781 -7.632812 1.3125 -7.734375 1.625 -7.734375 C 1.9375 -7.734375 2.191406 -7.632812 2.390625 -7.4375 C 2.597656 -7.238281 2.703125 -6.992188 2.703125 -6.703125 Z M 2.515625 -4.90625 L 2.515625 0 L 0.71875 0 L 0.71875 -4.90625 Z M 2.515625 -4.90625 "/>
</g>
<g id="glyph-2-6">
<path d="M 2.8125 -3.5625 L 2.8125 0 L 1.015625 0 L 1.015625 -3.5625 L 0.265625 -3.5625 L 0.265625 -4.90625 L 1.015625 -4.90625 C 1.066406 -5.675781 1.28125 -6.25 1.65625 -6.625 C 2.03125 -7.007812 2.578125 -7.203125 3.296875 -7.203125 C 3.492188 -7.203125 3.703125 -7.1875 3.921875 -7.15625 C 4.140625 -7.132812 4.359375 -7.09375 4.578125 -7.03125 L 4.578125 -5.578125 C 4.390625 -5.628906 4.210938 -5.664062 4.046875 -5.6875 C 3.890625 -5.71875 3.71875 -5.734375 3.53125 -5.734375 C 3.28125 -5.734375 3.097656 -5.671875 2.984375 -5.546875 C 2.867188 -5.421875 2.8125 -5.207031 2.8125 -4.90625 L 4.109375 -4.90625 L 4.109375 -3.5625 Z M 2.8125 -3.5625 "/>
</g>
<g id="glyph-3-0">
<path d="M -2.109375 -5.34375 C -1.390625 -5.34375 -0.84375 -5.097656 -0.46875 -4.609375 C -0.09375 -4.128906 0.09375 -3.414062 0.09375 -2.46875 C 0.09375 -2.09375 0.0625 -1.742188 0 -1.421875 C -0.0507812 -1.097656 -0.132812 -0.773438 -0.25 -0.453125 L -1.921875 -0.453125 C -1.753906 -0.742188 -1.625 -1.066406 -1.53125 -1.421875 C -1.4375 -1.773438 -1.390625 -2.132812 -1.390625 -2.5 C -1.390625 -2.789062 -1.4375 -3.003906 -1.53125 -3.140625 C -1.625 -3.285156 -1.757812 -3.359375 -1.9375 -3.359375 C -2.0625 -3.359375 -2.175781 -3.300781 -2.28125 -3.1875 C -2.382812 -3.070312 -2.519531 -2.804688 -2.6875 -2.390625 C -2.851562 -1.992188 -2.992188 -1.703125 -3.109375 -1.515625 C -3.222656 -1.328125 -3.34375 -1.164062 -3.46875 -1.03125 C -3.65625 -0.832031 -3.867188 -0.6875 -4.109375 -0.59375 C -4.347656 -0.5 -4.613281 -0.453125 -4.90625 -0.453125 C -5.550781 -0.453125 -6.050781 -0.6875 -6.40625 -1.15625 C -6.769531 -1.632812 -6.953125 -2.300781 -6.953125 -3.15625 C -6.953125 -3.5 -6.914062 -3.835938 -6.84375 -4.171875 C -6.78125 -4.515625 -6.6875 -4.804688 -6.5625 -5.046875 L -4.796875 -5.046875 C -4.992188 -4.816406 -5.148438 -4.523438 -5.265625 -4.171875 C -5.378906 -3.828125 -5.4375 -3.476562 -5.4375 -3.125 C -5.4375 -2.875 -5.398438 -2.6875 -5.328125 -2.5625 C -5.265625 -2.445312 -5.160156 -2.390625 -5.015625 -2.390625 C -4.878906 -2.390625 -4.753906 -2.453125 -4.640625 -2.578125 C -4.523438 -2.703125 -4.367188 -2.988281 -4.171875 -3.4375 C -4.015625 -3.8125 -3.882812 -4.085938 -3.78125 -4.265625 C -3.675781 -4.453125 -3.566406 -4.613281 -3.453125 -4.75 C -3.265625 -4.945312 -3.0625 -5.09375 -2.84375 -5.1875 C -2.625 -5.289062 -2.378906 -5.34375 -2.109375 -5.34375 Z M -2.109375 -5.34375 "/>
</g>
<g id="glyph-3-1">
<path d="M -0.25 -4.234375 C -0.132812 -4.003906 -0.0507812 -3.769531 0 -3.53125 C 0.0625 -3.289062 0.09375 -3.046875 0.09375 -2.796875 C 0.09375 -2.054688 -0.140625 -1.460938 -0.609375 -1.015625 C -1.078125 -0.578125 -1.691406 -0.359375 -2.453125 -0.359375 C -3.234375 -0.359375 -3.851562 -0.570312 -4.3125 -1 C -4.769531 -1.425781 -5 -2.023438 -5 -2.796875 C -5 -3.085938 -4.96875 -3.347656 -4.90625 -3.578125 C -4.851562 -3.804688 -4.769531 -4.015625 -4.65625 -4.203125 L -3.1875 -4.203125 C -3.300781 -4.035156 -3.394531 -3.84375 -3.46875 -3.625 C -3.539062 -3.414062 -3.578125 -3.203125 -3.578125 -2.984375 C -3.578125 -2.710938 -3.484375 -2.503906 -3.296875 -2.359375 C -3.109375 -2.222656 -2.832031 -2.15625 -2.46875 -2.15625 C -2.113281 -2.15625 -1.84375 -2.222656 -1.65625 -2.359375 C -1.46875 -2.503906 -1.375 -2.710938 -1.375 -2.984375 C -1.375 -3.210938 -1.40625 -3.4375 -1.46875 -3.65625 C -1.539062 -3.875 -1.640625 -4.066406 -1.765625 -4.234375 Z M -0.25 -4.234375 "/>
</g>
<g id="glyph-3-2">
<path d="M -2.453125 -5.390625 C -1.660156 -5.390625 -1.035156 -5.164062 -0.578125 -4.71875 C -0.128906 -4.269531 0.09375 -3.65625 0.09375 -2.875 C 0.09375 -2.09375 -0.128906 -1.476562 -0.578125 -1.03125 C -1.035156 -0.582031 -1.660156 -0.359375 -2.453125 -0.359375 C -3.234375 -0.359375 -3.851562 -0.582031 -4.3125 -1.03125 C -4.769531 -1.476562 -5 -2.09375 -5 -2.875 C -5 -3.65625 -4.769531 -4.269531 -4.3125 -4.71875 C -3.851562 -5.164062 -3.234375 -5.390625 -2.453125 -5.390625 Z M -2.453125 -3.578125 C -2.847656 -3.578125 -3.140625 -3.519531 -3.328125 -3.40625 C -3.523438 -3.289062 -3.625 -3.113281 -3.625 -2.875 C -3.625 -2.632812 -3.523438 -2.457031 -3.328125 -2.34375 C -3.140625 -2.226562 -2.847656 -2.171875 -2.453125 -2.171875 C -2.054688 -2.171875 -1.757812 -2.226562 -1.5625 -2.34375 C -1.375 -2.457031 -1.28125 -2.632812 -1.28125 -2.875 C -1.28125 -3.113281 -1.375 -3.289062 -1.5625 -3.40625 C -1.757812 -3.519531 -2.054688 -3.578125 -2.453125 -3.578125 Z M -2.453125 -3.578125 "/>
</g>
<g id="glyph-3-3">
<path d="M -2.625 -2.515625 L 0 -2.515625 L 0 -0.71875 L -4.90625 -0.71875 L -4.90625 -2.515625 L -4.3125 -2.515625 L -4.296875 -2.5625 C -4.554688 -2.78125 -4.738281 -2.988281 -4.84375 -3.1875 C -4.945312 -3.382812 -5 -3.597656 -5 -3.828125 C -5 -3.890625 -4.992188 -3.953125 -4.984375 -4.015625 C -4.984375 -4.085938 -4.972656 -4.160156 -4.953125 -4.234375 L -3.109375 -4.234375 C -3.128906 -4.117188 -3.140625 -4.039062 -3.140625 -4 C -3.148438 -3.957031 -3.15625 -3.914062 -3.15625 -3.875 C -3.15625 -3.53125 -3.113281 -3.25 -3.03125 -3.03125 C -2.945312 -2.820312 -2.8125 -2.648438 -2.625 -2.515625 Z M -2.625 -2.515625 "/>
</g>
<g id="glyph-3-4">
<path d="M -0.1875 -4.703125 C -0.09375 -4.429688 -0.0234375 -4.15625 0.015625 -3.875 C 0.0664062 -3.59375 0.09375 -3.300781 0.09375 -3 C 0.09375 -2.195312 -0.140625 -1.554688 -0.609375 -1.078125 C -1.078125 -0.597656 -1.710938 -0.359375 -2.515625 -0.359375 C -3.265625 -0.359375 -3.863281 -0.578125 -4.3125 -1.015625 C -4.769531 -1.460938 -5 -2.0625 -5 -2.8125 C -5 -3.476562 -4.820312 -3.992188 -4.46875 -4.359375 C -4.113281 -4.722656 -3.613281 -4.90625 -2.96875 -4.90625 C -2.800781 -4.90625 -2.632812 -4.890625 -2.46875 -4.859375 C -2.300781 -4.835938 -2.144531 -4.804688 -2 -4.765625 L -2 -2.0625 C -1.738281 -2.113281 -1.550781 -2.226562 -1.4375 -2.40625 C -1.320312 -2.582031 -1.265625 -2.84375 -1.265625 -3.1875 C -1.265625 -3.394531 -1.28125 -3.601562 -1.3125 -3.8125 C -1.351562 -4.019531 -1.429688 -4.316406 -1.546875 -4.703125 Z M -3.234375 -3.4375 C -3.441406 -3.4375 -3.601562 -3.378906 -3.71875 -3.265625 C -3.832031 -3.148438 -3.890625 -2.984375 -3.890625 -2.765625 C -3.890625 -2.535156 -3.816406 -2.351562 -3.671875 -2.21875 C -3.523438 -2.09375 -3.304688 -2.03125 -3.015625 -2.03125 L -3.015625 -3.421875 C -3.023438 -3.421875 -3.039062 -3.421875 -3.0625 -3.421875 C -3.09375 -3.429688 -3.148438 -3.4375 -3.234375 -3.4375 Z M -3.234375 -3.4375 "/>
</g>
<g id="glyph-3-5">
</g>
<g id="glyph-3-6">
<path d="M -0.390625 -3.453125 C -0.234375 -3.316406 -0.113281 -3.144531 -0.03125 -2.9375 C 0.0507812 -2.726562 0.09375 -2.488281 0.09375 -2.21875 C 0.09375 -1.664062 -0.132812 -1.21875 -0.59375 -0.875 C -1.050781 -0.53125 -1.660156 -0.359375 -2.421875 -0.359375 C -3.179688 -0.359375 -3.800781 -0.539062 -4.28125 -0.90625 C -4.757812 -1.269531 -5 -1.75 -5 -2.34375 C -5 -2.53125 -4.976562 -2.71875 -4.9375 -2.90625 C -4.894531 -3.09375 -4.832031 -3.265625 -4.75 -3.421875 L -4.765625 -3.46875 L -7.125 -3.46875 L -7.125 -5.28125 L 0 -5.28125 L 0 -3.46875 L -0.375 -3.46875 Z M -3.484375 -3.46875 C -3.535156 -3.414062 -3.570312 -3.34375 -3.59375 -3.25 C -3.613281 -3.164062 -3.625 -3.078125 -3.625 -2.984375 C -3.625 -2.722656 -3.519531 -2.519531 -3.3125 -2.375 C -3.101562 -2.226562 -2.8125 -2.15625 -2.4375 -2.15625 C -2.082031 -2.15625 -1.796875 -2.222656 -1.578125 -2.359375 C -1.367188 -2.503906 -1.265625 -2.703125 -1.265625 -2.953125 C -1.265625 -3.066406 -1.285156 -3.164062 -1.328125 -3.25 C -1.378906 -3.34375 -1.445312 -3.414062 -1.53125 -3.46875 Z M -3.484375 -3.46875 "/>
</g>
<g id="glyph-3-7">
<path d="M -0.140625 -2.515625 L 2.015625 -2.515625 L 2.015625 -0.71875 L -4.90625 -0.71875 L -4.90625 -2.515625 L -4.546875 -2.515625 L -4.53125 -2.546875 C -4.6875 -2.691406 -4.800781 -2.867188 -4.875 -3.078125 C -4.957031 -3.285156 -5 -3.515625 -5 -3.765625 C -5 -4.328125 -4.769531 -4.78125 -4.3125 -5.125 C -3.851562 -5.46875 -3.257812 -5.640625 -2.53125 -5.640625 C -1.738281 -5.640625 -1.101562 -5.457031 -0.625 -5.09375 C -0.144531 -4.726562 0.09375 -4.238281 0.09375 -3.625 C 0.09375 -3.445312 0.0664062 -3.265625 0.015625 -3.078125 C -0.0234375 -2.890625 -0.0820312 -2.71875 -0.15625 -2.5625 Z M -3.640625 -3.046875 C -3.640625 -2.929688 -3.613281 -2.828125 -3.5625 -2.734375 C -3.519531 -2.640625 -3.457031 -2.566406 -3.375 -2.515625 L -1.40625 -2.515625 C -1.363281 -2.578125 -1.332031 -2.648438 -1.3125 -2.734375 C -1.289062 -2.828125 -1.28125 -2.914062 -1.28125 -3 C -1.28125 -3.269531 -1.382812 -3.472656 -1.59375 -3.609375 C -1.800781 -3.753906 -2.09375 -3.828125 -2.46875 -3.828125 C -2.820312 -3.828125 -3.101562 -3.757812 -3.3125 -3.625 C -3.53125 -3.488281 -3.640625 -3.296875 -3.640625 -3.046875 Z M -3.640625 -3.046875 "/>
</g>
<g id="glyph-3-8">
<path d="M -3.390625 -2.515625 L 0 -2.515625 L 0 -0.71875 L -4.90625 -0.71875 L -4.90625 -2.515625 L -4.59375 -2.515625 L -4.5625 -2.5625 C -4.707031 -2.738281 -4.816406 -2.9375 -4.890625 -3.15625 C -4.960938 -3.382812 -5 -3.625 -5 -3.875 C -5 -4.394531 -4.851562 -4.785156 -4.5625 -5.046875 C -4.28125 -5.316406 -3.859375 -5.453125 -3.296875 -5.453125 L 0 -5.453125 L 0 -3.65625 L -2.9375 -3.65625 C -3.1875 -3.65625 -3.359375 -3.625 -3.453125 -3.5625 C -3.554688 -3.5 -3.609375 -3.390625 -3.609375 -3.234375 C -3.609375 -3.109375 -3.585938 -2.976562 -3.546875 -2.84375 C -3.503906 -2.707031 -3.453125 -2.597656 -3.390625 -2.515625 Z M -3.390625 -2.515625 "/>
</g>
<g id="glyph-3-9">
<path d="M -1.53125 -4.359375 C -1.039062 -4.359375 -0.644531 -4.164062 -0.34375 -3.78125 C -0.0390625 -3.40625 0.109375 -2.921875 0.109375 -2.328125 C 0.109375 -2.003906 0.0820312 -1.6875 0.03125 -1.375 C -0.0195312 -1.070312 -0.09375 -0.796875 -0.1875 -0.546875 L -1.625 -0.546875 C -1.5 -0.773438 -1.394531 -1.03125 -1.3125 -1.3125 C -1.238281 -1.601562 -1.203125 -1.867188 -1.203125 -2.109375 C -1.203125 -2.296875 -1.222656 -2.429688 -1.265625 -2.515625 C -1.304688 -2.597656 -1.367188 -2.640625 -1.453125 -2.640625 C -1.523438 -2.640625 -1.585938 -2.601562 -1.640625 -2.53125 C -1.691406 -2.457031 -1.753906 -2.289062 -1.828125 -2.03125 C -1.921875 -1.71875 -2 -1.484375 -2.0625 -1.328125 C -2.132812 -1.171875 -2.222656 -1.035156 -2.328125 -0.921875 C -2.460938 -0.785156 -2.617188 -0.679688 -2.796875 -0.609375 C -2.984375 -0.535156 -3.191406 -0.5 -3.421875 -0.5 C -3.929688 -0.5 -4.320312 -0.675781 -4.59375 -1.03125 C -4.863281 -1.382812 -5 -1.90625 -5 -2.59375 C -5 -2.851562 -4.976562 -3.109375 -4.9375 -3.359375 C -4.90625 -3.609375 -4.847656 -3.863281 -4.765625 -4.125 L -3.375 -4.125 C -3.46875 -3.96875 -3.546875 -3.75 -3.609375 -3.46875 C -3.671875 -3.1875 -3.703125 -2.914062 -3.703125 -2.65625 C -3.703125 -2.488281 -3.679688 -2.367188 -3.640625 -2.296875 C -3.609375 -2.234375 -3.546875 -2.203125 -3.453125 -2.203125 C -3.390625 -2.203125 -3.332031 -2.238281 -3.28125 -2.3125 C -3.238281 -2.382812 -3.179688 -2.550781 -3.109375 -2.8125 C -3.015625 -3.125 -2.929688 -3.359375 -2.859375 -3.515625 C -2.785156 -3.671875 -2.703125 -3.800781 -2.609375 -3.90625 C -2.472656 -4.050781 -2.316406 -4.160156 -2.140625 -4.234375 C -1.960938 -4.316406 -1.757812 -4.359375 -1.53125 -4.359375 Z M -1.53125 -4.359375 "/>
</g>
<g id="glyph-3-10">
<path d="M -6.703125 -2.703125 C -6.398438 -2.703125 -6.144531 -2.597656 -5.9375 -2.390625 C -5.738281 -2.179688 -5.640625 -1.925781 -5.640625 -1.625 C -5.640625 -1.3125 -5.738281 -1.050781 -5.9375 -0.84375 C -6.144531 -0.644531 -6.398438 -0.546875 -6.703125 -0.546875 C -6.992188 -0.546875 -7.238281 -0.644531 -7.4375 -0.84375 C -7.632812 -1.050781 -7.734375 -1.3125 -7.734375 -1.625 C -7.734375 -1.9375 -7.632812 -2.191406 -7.4375 -2.390625 C -7.238281 -2.597656 -6.992188 -2.703125 -6.703125 -2.703125 Z M -4.90625 -2.515625 L 0 -2.515625 L 0 -0.71875 L -4.90625 -0.71875 Z M -4.90625 -2.515625 "/>
</g>
</g>
<clipPath id="clip-0">
<path clip-rule="nonzero" d="M 43.152344 5.480469 L 426.523438 5.480469 L 426.523438 218.851562 L 43.152344 218.851562 Z M 43.152344 5.480469 "/>
</clipPath>
<clipPath id="clip-1">
<path clip-rule="nonzero" d="M 43.152344 180 L 426.523438 180 L 426.523438 182 L 43.152344 182 Z M 43.152344 180 "/>
</clipPath>
<clipPath id="clip-2">
<path clip-rule="nonzero" d="M 43.152344 132 L 426.523438 132 L 426.523438 133 L 43.152344 133 Z M 43.152344 132 "/>
</clipPath>
<clipPath id="clip-3">
<path clip-rule="nonzero" d="M 43.152344 83 L 426.523438 83 L 426.523438 85 L 43.152344 85 Z M 43.152344 83 "/>
</clipPath>
<clipPath id="clip-4">
<path clip-rule="nonzero" d="M 43.152344 35 L 426.523438 35 L 426.523438 36 L 43.152344 36 Z M 43.152344 35 "/>
</clipPath>
<clipPath id="clip-5">
<path clip-rule="nonzero" d="M 56 5.480469 L 58 5.480469 L 58 218.851562 L 56 218.851562 Z M 56 5.480469 "/>
</clipPath>
<clipPath id="clip-6">
<path clip-rule="nonzero" d="M 107 5.480469 L 108 5.480469 L 108 218.851562 L 107 218.851562 Z M 107 5.480469 "/>
</clipPath>
<clipPath id="clip-7">
<path clip-rule="nonzero" d="M 158 5.480469 L 159 5.480469 L 159 218.851562 L 158 218.851562 Z M 158 5.480469 "/>
</clipPath>
<clipPath id="clip-8">
<path clip-rule="nonzero" d="M 209 5.480469 L 210 5.480469 L 210 218.851562 L 209 218.851562 Z M 209 5.480469 "/>
</clipPath>
<clipPath id="clip-9">
<path clip-rule="nonzero" d="M 260 5.480469 L 261 5.480469 L 261 218.851562 L 260 218.851562 Z M 260 5.480469 "/>
</clipPath>
<clipPath id="clip-10">
<path clip-rule="nonzero" d="M 310 5.480469 L 312 5.480469 L 312 218.851562 L 310 218.851562 Z M 310 5.480469 "/>
</clipPath>
<clipPath id="clip-11">
<path clip-rule="nonzero" d="M 361 5.480469 L 363 5.480469 L 363 218.851562 L 361 218.851562 Z M 361 5.480469 "/>
</clipPath>
<clipPath id="clip-12">
<path clip-rule="nonzero" d="M 412 5.480469 L 414 5.480469 L 414 218.851562 L 412 218.851562 Z M 412 5.480469 "/>
</clipPath>
<clipPath id="clip-13">
<path clip-rule="nonzero" d="M 43.152344 204 L 426.523438 204 L 426.523438 206 L 43.152344 206 Z M 43.152344 204 "/>
</clipPath>
<clipPath id="clip-14">
<path clip-rule="nonzero" d="M 43.152344 156 L 426.523438 156 L 426.523438 158 L 43.152344 158 Z M 43.152344 156 "/>
</clipPath>
<clipPath id="clip-15">
<path clip-rule="nonzero" d="M 43.152344 107 L 426.523438 107 L 426.523438 109 L 43.152344 109 Z M 43.152344 107 "/>
</clipPath>
<clipPath id="clip-16">
<path clip-rule="nonzero" d="M 43.152344 59 L 426.523438 59 L 426.523438 61 L 43.152344 61 Z M 43.152344 59 "/>
</clipPath>
<clipPath id="clip-17">
<path clip-rule="nonzero" d="M 43.152344 10 L 426.523438 10 L 426.523438 12 L 43.152344 12 Z M 43.152344 10 "/>
</clipPath>
<clipPath id="clip-18">
<path clip-rule="nonzero" d="M 81 5.480469 L 83 5.480469 L 83 218.851562 L 81 218.851562 Z M 81 5.480469 "/>
</clipPath>
<clipPath id="clip-19">
<path clip-rule="nonzero" d="M 132 5.480469 L 134 5.480469 L 134 218.851562 L 132 218.851562 Z M 132 5.480469 "/>
</clipPath>
<clipPath id="clip-20">
<path clip-rule="nonzero" d="M 183 5.480469 L 185 5.480469 L 185 218.851562 L 183 218.851562 Z M 183 5.480469 "/>
</clipPath>
<clipPath id="clip-21">
<path clip-rule="nonzero" d="M 234 5.480469 L 236 5.480469 L 236 218.851562 L 234 218.851562 Z M 234 5.480469 "/>
</clipPath>
<clipPath id="clip-22">
<path clip-rule="nonzero" d="M 285 5.480469 L 287 5.480469 L 287 218.851562 L 285 218.851562 Z M 285 5.480469 "/>
</clipPath>
<clipPath id="clip-23">
<path clip-rule="nonzero" d="M 336 5.480469 L 338 5.480469 L 338 218.851562 L 336 218.851562 Z M 336 5.480469 "/>
</clipPath>
<clipPath id="clip-24">
<path clip-rule="nonzero" d="M 386 5.480469 L 389 5.480469 L 389 218.851562 L 386 218.851562 Z M 386 5.480469 "/>
</clipPath>
<clipPath id="clip-25">
<path clip-rule="nonzero" d="M 234 5.480469 L 236 5.480469 L 236 218.851562 L 234 218.851562 Z M 234 5.480469 "/>
</clipPath>
<clipPath id="clip-26">
<path clip-rule="nonzero" d="M 43.152344 107 L 426.523438 107 L 426.523438 109 L 43.152344 109 Z M 43.152344 107 "/>
</clipPath>
</defs>
<rect x="-43.2" y="-25.2" width="518.4" height="302.4" fill="rgb(100%, 100%, 100%)" fill-opacity="1"/>
<rect x="-43.2" y="-25.2" width="518.4" height="302.4" fill="rgb(100%, 100%, 100%)" fill-opacity="1"/>
<path fill="none" stroke-width="1.066978" stroke-linecap="round" stroke-linejoin="round" stroke="rgb(100%, 100%, 100%)" stroke-opacity="1" stroke-miterlimit="10" d="M 0 252 L 432 252 L 432 0 L 0 0 Z M 0 252 "/>
<g clip-path="url(#clip-0)">
<path fill-rule="nonzero" fill="rgb(94.901961%, 94.901961%, 94.901961%)" fill-opacity="1" d="M 43.152344 218.847656 L 426.523438 218.847656 L 426.523438 5.476562 L 43.152344 5.476562 Z M 43.152344 218.847656 "/>
</g>
<g clip-path="url(#clip-1)">
<path fill="none" stroke-width="0.533489" stroke-linecap="butt" stroke-linejoin="round" stroke="rgb(100%, 100%, 100%)" stroke-opacity="1" stroke-miterlimit="10" d="M 43.152344 181.023438 L 426.519531 181.023438 "/>
</g>
<g clip-path="url(#clip-2)">
<path fill="none" stroke-width="0.533489" stroke-linecap="butt" stroke-linejoin="round" stroke="rgb(100%, 100%, 100%)" stroke-opacity="1" stroke-miterlimit="10" d="M 43.152344 132.53125 L 426.519531 132.53125 "/>
</g>
<g clip-path="url(#clip-3)">
<path fill="none" stroke-width="0.533489" stroke-linecap="butt" stroke-linejoin="round" stroke="rgb(100%, 100%, 100%)" stroke-opacity="1" stroke-miterlimit="10" d="M 43.152344 84.039062 L 426.519531 84.039062 "/>
</g>
<g clip-path="url(#clip-4)">
<path fill="none" stroke-width="0.533489" stroke-linecap="butt" stroke-linejoin="round" stroke="rgb(100%, 100%, 100%)" stroke-opacity="1" stroke-miterlimit="10" d="M 43.152344 35.546875 L 426.519531 35.546875 "/>
</g>
<g clip-path="url(#clip-5)">
<path fill="none" stroke-width="0.533489" stroke-linecap="butt" stroke-linejoin="round" stroke="rgb(100%, 100%, 100%)" stroke-opacity="1" stroke-miterlimit="10" d="M 56.761719 218.847656 L 56.761719 5.480469 "/>
</g>
<g clip-path="url(#clip-6)">
<path fill="none" stroke-width="0.533489" stroke-linecap="butt" stroke-linejoin="round" stroke="rgb(100%, 100%, 100%)" stroke-opacity="1" stroke-miterlimit="10" d="M 107.640625 218.847656 L 107.640625 5.480469 "/>
</g>
<g clip-path="url(#clip-7)">
<path fill="none" stroke-width="0.533489" stroke-linecap="butt" stroke-linejoin="round" stroke="rgb(100%, 100%, 100%)" stroke-opacity="1" stroke-miterlimit="10" d="M 158.519531 218.847656 L 158.519531 5.480469 "/>
</g>
<g clip-path="url(#clip-8)">
<path fill="none" stroke-width="0.533489" stroke-linecap="butt" stroke-linejoin="round" stroke="rgb(100%, 100%, 100%)" stroke-opacity="1" stroke-miterlimit="10" d="M 209.394531 218.847656 L 209.394531 5.480469 "/>
</g>
<g clip-path="url(#clip-9)">
<path fill="none" stroke-width="0.533489" stroke-linecap="butt" stroke-linejoin="round" stroke="rgb(100%, 100%, 100%)" stroke-opacity="1" stroke-miterlimit="10" d="M 260.273438 218.847656 L 260.273438 5.480469 "/>
</g>
<g clip-path="url(#clip-10)">
<path fill="none" stroke-width="0.533489" stroke-linecap="butt" stroke-linejoin="round" stroke="rgb(100%, 100%, 100%)" stroke-opacity="1" stroke-miterlimit="10" d="M 311.152344 218.847656 L 311.152344 5.480469 "/>
</g>
<g clip-path="url(#clip-11)">
<path fill="none" stroke-width="0.533489" stroke-linecap="butt" stroke-linejoin="round" stroke="rgb(100%, 100%, 100%)" stroke-opacity="1" stroke-miterlimit="10" d="M 362.03125 218.847656 L 362.03125 5.480469 "/>
</g>
<g clip-path="url(#clip-12)">
<path fill="none" stroke-width="0.533489" stroke-linecap="butt" stroke-linejoin="round" stroke="rgb(100%, 100%, 100%)" stroke-opacity="1" stroke-miterlimit="10" d="M 412.910156 218.847656 L 412.910156 5.480469 "/>
</g>
<g clip-path="url(#clip-13)">
<path fill="none" stroke-width="1.066978" stroke-linecap="butt" stroke-linejoin="round" stroke="rgb(100%, 100%, 100%)" stroke-opacity="1" stroke-miterlimit="10" d="M 43.152344 205.269531 L 426.519531 205.269531 "/>
</g>
<g clip-path="url(#clip-14)">
<path fill="none" stroke-width="1.066978" stroke-linecap="butt" stroke-linejoin="round" stroke="rgb(100%, 100%, 100%)" stroke-opacity="1" stroke-miterlimit="10" d="M 43.152344 156.777344 L 426.519531 156.777344 "/>
</g>
<g clip-path="url(#clip-15)">
<path fill="none" stroke-width="1.066978" stroke-linecap="butt" stroke-linejoin="round" stroke="rgb(100%, 100%, 100%)" stroke-opacity="1" stroke-miterlimit="10" d="M 43.152344 108.285156 L 426.519531 108.285156 "/>
</g>
<g clip-path="url(#clip-16)">
<path fill="none" stroke-width="1.066978" stroke-linecap="butt" stroke-linejoin="round" stroke="rgb(100%, 100%, 100%)" stroke-opacity="1" stroke-miterlimit="10" d="M 43.152344 59.792969 L 426.519531 59.792969 "/>
</g>
<g clip-path="url(#clip-17)">
<path fill="none" stroke-width="1.066978" stroke-linecap="butt" stroke-linejoin="round" stroke="rgb(100%, 100%, 100%)" stroke-opacity="1" stroke-miterlimit="10" d="M 43.152344 11.296875 L 426.519531 11.296875 "/>
</g>
<g clip-path="url(#clip-18)">
<path fill="none" stroke-width="1.066978" stroke-linecap="butt" stroke-linejoin="round" stroke="rgb(100%, 100%, 100%)" stroke-opacity="1" stroke-miterlimit="10" d="M 82.199219 218.847656 L 82.199219 5.480469 "/>
</g>
<g clip-path="url(#clip-19)">
<path fill="none" stroke-width="1.066978" stroke-linecap="butt" stroke-linejoin="round" stroke="rgb(100%, 100%, 100%)" stroke-opacity="1" stroke-miterlimit="10" d="M 133.078125 218.847656 L 133.078125 5.480469 "/>
</g>
<g clip-path="url(#clip-20)">
<path fill="none" stroke-width="1.066978" stroke-linecap="butt" stroke-linejoin="round" stroke="rgb(100%, 100%, 100%)" stroke-opacity="1" stroke-miterlimit="10" d="M 183.957031 218.847656 L 183.957031 5.480469 "/>
</g>
<g clip-path="url(#clip-21)">
<path fill="none" stroke-width="1.066978" stroke-linecap="butt" stroke-linejoin="round" stroke="rgb(100%, 100%, 100%)" stroke-opacity="1" stroke-miterlimit="10" d="M 234.835938 218.847656 L 234.835938 5.480469 "/>
</g>
<g clip-path="url(#clip-22)">
<path fill="none" stroke-width="1.066978" stroke-linecap="butt" stroke-linejoin="round" stroke="rgb(100%, 100%, 100%)" stroke-opacity="1" stroke-miterlimit="10" d="M 285.714844 218.847656 L 285.714844 5.480469 "/>
</g>
<g clip-path="url(#clip-23)">
<path fill="none" stroke-width="1.066978" stroke-linecap="butt" stroke-linejoin="round" stroke="rgb(100%, 100%, 100%)" stroke-opacity="1" stroke-miterlimit="10" d="M 336.59375 218.847656 L 336.59375 5.480469 "/>
</g>
<g clip-path="url(#clip-24)">
<path fill="none" stroke-width="1.066978" stroke-linecap="butt" stroke-linejoin="round" stroke="rgb(100%, 100%, 100%)" stroke-opacity="1" stroke-miterlimit="10" d="M 387.472656 218.847656 L 387.472656 5.480469 "/>
</g>
<path fill="none" stroke-width="1.066978" stroke-linecap="butt" stroke-linejoin="miter" stroke="rgb(94.901961%, 94.901961%, 94.901961%)" stroke-opacity="1" stroke-miterlimit="10" d="M 234.835938 209.152344 L 234.835938 201.394531 Z M 234.835938 209.152344 "/>
<path fill-rule="nonzero" fill="rgb(60%, 60%, 60%)" fill-opacity="0.698039" stroke-width="1.066978" stroke-linecap="butt" stroke-linejoin="miter" stroke="rgb(94.901961%, 94.901961%, 94.901961%)" stroke-opacity="1" stroke-miterlimit="10" d="M 228.476562 201.390625 L 234.835938 201.390625 L 234.835938 193.632812 L 228.476562 193.632812 Z M 228.476562 201.390625 "/>
<path fill-rule="nonzero" fill="rgb(60%, 60%, 60%)" fill-opacity="0.698039" stroke-width="1.066978" stroke-linecap="butt" stroke-linejoin="miter" stroke="rgb(94.901961%, 94.901961%, 94.901961%)" stroke-opacity="1" stroke-miterlimit="10" d="M 214.484375 193.632812 L 234.835938 193.632812 L 234.835938 185.875 L 214.484375 185.875 Z M 214.484375 193.632812 "/>
<path fill-rule="nonzero" fill="rgb(60%, 60%, 60%)" fill-opacity="0.698039" stroke-width="1.066978" stroke-linecap="butt" stroke-linejoin="miter" stroke="rgb(94.901961%, 94.901961%, 94.901961%)" stroke-opacity="1" stroke-miterlimit="10" d="M 182.683594 185.875 L 234.835938 185.875 L 234.835938 178.117188 L 182.683594 178.117188 Z M 182.683594 185.875 "/>
<path fill-rule="nonzero" fill="rgb(60%, 60%, 60%)" fill-opacity="0.698039" stroke-width="1.066978" stroke-linecap="butt" stroke-linejoin="miter" stroke="rgb(94.901961%, 94.901961%, 94.901961%)" stroke-opacity="1" stroke-miterlimit="10" d="M 149.613281 178.113281 L 234.835938 178.113281 L 234.835938 170.355469 L 149.613281 170.355469 Z M 149.613281 178.113281 "/>
<path fill-rule="nonzero" fill="rgb(60%, 60%, 60%)" fill-opacity="0.698039" stroke-width="1.066978" stroke-linecap="butt" stroke-linejoin="miter" stroke="rgb(94.901961%, 94.901961%, 94.901961%)" stroke-opacity="1" stroke-miterlimit="10" d="M 93.648438 170.355469 L 234.835938 170.355469 L 234.835938 162.597656 L 93.648438 162.597656 Z M 93.648438 170.355469 "/>
<path fill-rule="nonzero" fill="rgb(60%, 60%, 60%)" fill-opacity="0.698039" stroke-width="1.066978" stroke-linecap="butt" stroke-linejoin="miter" stroke="rgb(94.901961%, 94.901961%, 94.901961%)" stroke-opacity="1" stroke-miterlimit="10" d="M 97.464844 162.597656 L 234.835938 162.597656 L 234.835938 154.839844 L 97.464844 154.839844 Z M 97.464844 162.597656 "/>
<path fill-rule="nonzero" fill="rgb(60%, 60%, 60%)" fill-opacity="0.698039" stroke-width="1.066978" stroke-linecap="butt" stroke-linejoin="miter" stroke="rgb(94.901961%, 94.901961%, 94.901961%)" stroke-opacity="1" stroke-miterlimit="10" d="M 87.289062 154.839844 L 234.835938 154.839844 L 234.835938 147.082031 L 87.289062 147.082031 Z M 87.289062 154.839844 "/>
<path fill-rule="nonzero" fill="rgb(60%, 60%, 60%)" fill-opacity="0.698039" stroke-width="1.066978" stroke-linecap="butt" stroke-linejoin="miter" stroke="rgb(94.901961%, 94.901961%, 94.901961%)" stroke-opacity="1" stroke-miterlimit="10" d="M 111.457031 147.078125 L 234.835938 147.078125 L 234.835938 139.320312 L 111.457031 139.320312 Z M 111.457031 147.078125 "/>
<path fill-rule="nonzero" fill="rgb(60%, 60%, 60%)" fill-opacity="0.698039" stroke-width="1.066978" stroke-linecap="butt" stroke-linejoin="miter" stroke="rgb(94.901961%, 94.901961%, 94.901961%)" stroke-opacity="1" stroke-miterlimit="10" d="M 70.753906 139.320312 L 234.835938 139.320312 L 234.835938 131.5625 L 70.753906 131.5625 Z M 70.753906 139.320312 "/>
<path fill-rule="nonzero" fill="rgb(60%, 60%, 60%)" fill-opacity="0.698039" stroke-width="1.066978" stroke-linecap="butt" stroke-linejoin="miter" stroke="rgb(94.901961%, 94.901961%, 94.901961%)" stroke-opacity="1" stroke-miterlimit="10" d="M 63.121094 131.5625 L 234.835938 131.5625 L 234.835938 123.804688 L 63.121094 123.804688 Z M 63.121094 131.5625 "/>
<path fill-rule="nonzero" fill="rgb(60%, 60%, 60%)" fill-opacity="0.698039" stroke-width="1.066978" stroke-linecap="butt" stroke-linejoin="miter" stroke="rgb(94.901961%, 94.901961%, 94.901961%)" stroke-opacity="1" stroke-miterlimit="10" d="M 103.824219 123.804688 L 234.835938 123.804688 L 234.835938 116.046875 L 103.824219 116.046875 Z M 103.824219 123.804688 "/>
<path fill-rule="nonzero" fill="rgb(60%, 60%, 60%)" fill-opacity="0.698039" stroke-width="1.066978" stroke-linecap="butt" stroke-linejoin="miter" stroke="rgb(94.901961%, 94.901961%, 94.901961%)" stroke-opacity="1" stroke-miterlimit="10" d="M 60.578125 116.042969 L 234.835938 116.042969 L 234.835938 108.285156 L 60.578125 108.285156 Z M 60.578125 116.042969 "/>
<path fill-rule="nonzero" fill="rgb(60%, 60%, 60%)" fill-opacity="0.698039" stroke-width="1.066978" stroke-linecap="butt" stroke-linejoin="miter" stroke="rgb(94.901961%, 94.901961%, 94.901961%)" stroke-opacity="1" stroke-miterlimit="10" d="M 93.648438 108.285156 L 234.835938 108.285156 L 234.835938 100.527344 L 93.648438 100.527344 Z M 93.648438 108.285156 "/>
<path fill-rule="nonzero" fill="rgb(60%, 60%, 60%)" fill-opacity="0.698039" stroke-width="1.066978" stroke-linecap="butt" stroke-linejoin="miter" stroke="rgb(94.901961%, 94.901961%, 94.901961%)" stroke-opacity="1" stroke-miterlimit="10" d="M 100.007812 100.527344 L 234.835938 100.527344 L 234.835938 92.769531 L 100.007812 92.769531 Z M 100.007812 100.527344 "/>
<path fill-rule="nonzero" fill="rgb(60%, 60%, 60%)" fill-opacity="0.698039" stroke-width="1.066978" stroke-linecap="butt" stroke-linejoin="miter" stroke="rgb(94.901961%, 94.901961%, 94.901961%)" stroke-opacity="1" stroke-miterlimit="10" d="M 117.816406 92.765625 L 234.835938 92.765625 L 234.835938 85.007812 L 117.816406 85.007812 Z M 117.816406 92.765625 "/>
<path fill-rule="nonzero" fill="rgb(60%, 60%, 60%)" fill-opacity="0.698039" stroke-width="1.066978" stroke-linecap="butt" stroke-linejoin="miter" stroke="rgb(94.901961%, 94.901961%, 94.901961%)" stroke-opacity="1" stroke-miterlimit="10" d="M 136.894531 85.007812 L 234.835938 85.007812 L 234.835938 77.25 L 136.894531 77.25 Z M 136.894531 85.007812 "/>
<path fill-rule="nonzero" fill="rgb(60%, 60%, 60%)" fill-opacity="0.698039" stroke-width="1.066978" stroke-linecap="butt" stroke-linejoin="miter" stroke="rgb(94.901961%, 94.901961%, 94.901961%)" stroke-opacity="1" stroke-miterlimit="10" d="M 162.332031 77.25 L 234.832031 77.25 L 234.832031 69.492188 L 162.332031 69.492188 Z M 162.332031 77.25 "/>
<path fill-rule="nonzero" fill="rgb(60%, 60%, 60%)" fill-opacity="0.698039" stroke-width="1.066978" stroke-linecap="butt" stroke-linejoin="miter" stroke="rgb(94.901961%, 94.901961%, 94.901961%)" stroke-opacity="1" stroke-miterlimit="10" d="M 190.316406 69.492188 L 234.835938 69.492188 L 234.835938 61.734375 L 190.316406 61.734375 Z M 190.316406 69.492188 "/>
<path fill-rule="nonzero" fill="rgb(60%, 60%, 60%)" fill-opacity="0.698039" stroke-width="1.066978" stroke-linecap="butt" stroke-linejoin="miter" stroke="rgb(94.901961%, 94.901961%, 94.901961%)" stroke-opacity="1" stroke-miterlimit="10" d="M 195.40625 61.730469 L 234.835938 61.730469 L 234.835938 53.972656 L 195.40625 53.972656 Z M 195.40625 61.730469 "/>
<path fill-rule="nonzero" fill="rgb(60%, 60%, 60%)" fill-opacity="0.698039" stroke-width="1.066978" stroke-linecap="butt" stroke-linejoin="miter" stroke="rgb(94.901961%, 94.901961%, 94.901961%)" stroke-opacity="1" stroke-miterlimit="10" d="M 210.667969 53.972656 L 234.835938 53.972656 L 234.835938 46.214844 L 210.667969 46.214844 Z M 210.667969 53.972656 "/>
<path fill-rule="nonzero" fill="rgb(60%, 60%, 60%)" fill-opacity="0.698039" stroke-width="1.066978" stroke-linecap="butt" stroke-linejoin="miter" stroke="rgb(94.901961%, 94.901961%, 94.901961%)" stroke-opacity="1" stroke-miterlimit="10" d="M 218.300781 46.214844 L 234.835938 46.214844 L 234.835938 38.457031 L 218.300781 38.457031 Z M 218.300781 46.214844 "/>
<path fill-rule="nonzero" fill="rgb(60%, 60%, 60%)" fill-opacity="0.698039" stroke-width="1.066978" stroke-linecap="butt" stroke-linejoin="miter" stroke="rgb(94.901961%, 94.901961%, 94.901961%)" stroke-opacity="1" stroke-miterlimit="10" d="M 229.746094 38.453125 L 234.832031 38.453125 L 234.832031 30.695312 L 229.746094 30.695312 Z M 229.746094 38.453125 "/>
<path fill-rule="nonzero" fill="rgb(60%, 60%, 60%)" fill-opacity="0.698039" stroke-width="1.066978" stroke-linecap="butt" stroke-linejoin="miter" stroke="rgb(94.901961%, 94.901961%, 94.901961%)" stroke-opacity="1" stroke-miterlimit="10" d="M 232.292969 30.695312 L 234.835938 30.695312 L 234.835938 22.9375 L 232.292969 22.9375 Z M 232.292969 30.695312 "/>
<path fill="none" stroke-width="1.066978" stroke-linecap="butt" stroke-linejoin="miter" stroke="rgb(94.901961%, 94.901961%, 94.901961%)" stroke-opacity="1" stroke-miterlimit="10" d="M 234.835938 22.9375 L 234.835938 15.179688 Z M 234.835938 22.9375 "/>
<path fill="none" stroke-width="1.066978" stroke-linecap="butt" stroke-linejoin="miter" stroke="rgb(94.901961%, 94.901961%, 94.901961%)" stroke-opacity="1" stroke-miterlimit="10" d="M 234.835938 209.152344 L 234.835938 201.394531 Z M 234.835938 209.152344 "/>
<path fill-rule="nonzero" fill="rgb(0%, 60%, 100%)" fill-opacity="0.698039" stroke-width="1.066978" stroke-linecap="butt" stroke-linejoin="miter" stroke="rgb(94.901961%, 94.901961%, 94.901961%)" stroke-opacity="1" stroke-miterlimit="10" d="M 234.835938 201.390625 L 241.195312 201.390625 L 241.195312 193.632812 L 234.835938 193.632812 Z M 234.835938 201.390625 "/>
<path fill-rule="nonzero" fill="rgb(0%, 60%, 100%)" fill-opacity="0.698039" stroke-width="1.066978" stroke-linecap="butt" stroke-linejoin="miter" stroke="rgb(94.901961%, 94.901961%, 94.901961%)" stroke-opacity="1" stroke-miterlimit="10" d="M 234.835938 193.632812 L 255.1875 193.632812 L 255.1875 185.875 L 234.835938 185.875 Z M 234.835938 193.632812 "/>
<path fill-rule="nonzero" fill="rgb(0%, 60%, 100%)" fill-opacity="0.698039" stroke-width="1.066978" stroke-linecap="butt" stroke-linejoin="miter" stroke="rgb(94.901961%, 94.901961%, 94.901961%)" stroke-opacity="1" stroke-miterlimit="10" d="M 234.835938 185.875 L 286.988281 185.875 L 286.988281 178.117188 L 234.835938 178.117188 Z M 234.835938 185.875 "/>
<path fill-rule="nonzero" fill="rgb(0%, 60%, 100%)" fill-opacity="0.698039" stroke-width="1.066978" stroke-linecap="butt" stroke-linejoin="miter" stroke="rgb(94.901961%, 94.901961%, 94.901961%)" stroke-opacity="1" stroke-miterlimit="10" d="M 234.835938 178.113281 L 320.058594 178.113281 L 320.058594 170.355469 L 234.835938 170.355469 Z M 234.835938 178.113281 "/>
<path fill-rule="nonzero" fill="rgb(0%, 60%, 100%)" fill-opacity="0.698039" stroke-width="1.066978" stroke-linecap="butt" stroke-linejoin="miter" stroke="rgb(94.901961%, 94.901961%, 94.901961%)" stroke-opacity="1" stroke-miterlimit="10" d="M 234.835938 170.355469 L 377.296875 170.355469 L 377.296875 162.597656 L 234.835938 162.597656 Z M 234.835938 170.355469 "/>
<path fill-rule="nonzero" fill="rgb(0%, 60%, 100%)" fill-opacity="0.698039" stroke-width="1.066978" stroke-linecap="butt" stroke-linejoin="miter" stroke="rgb(94.901961%, 94.901961%, 94.901961%)" stroke-opacity="1" stroke-miterlimit="10" d="M 234.835938 162.597656 L 372.207031 162.597656 L 372.207031 154.839844 L 234.835938 154.839844 Z M 234.835938 162.597656 "/>
<path fill-rule="nonzero" fill="rgb(0%, 60%, 100%)" fill-opacity="0.698039" stroke-width="1.066978" stroke-linecap="butt" stroke-linejoin="miter" stroke="rgb(94.901961%, 94.901961%, 94.901961%)" stroke-opacity="1" stroke-miterlimit="10" d="M 234.835938 154.839844 L 381.113281 154.839844 L 381.113281 147.082031 L 234.835938 147.082031 Z M 234.835938 154.839844 "/>
<path fill-rule="nonzero" fill="rgb(0%, 60%, 100%)" fill-opacity="0.698039" stroke-width="1.066978" stroke-linecap="butt" stroke-linejoin="miter" stroke="rgb(94.901961%, 94.901961%, 94.901961%)" stroke-opacity="1" stroke-miterlimit="10" d="M 234.835938 147.078125 L 358.214844 147.078125 L 358.214844 139.320312 L 234.835938 139.320312 Z M 234.835938 147.078125 "/>
<path fill-rule="nonzero" fill="rgb(0%, 60%, 100%)" fill-opacity="0.698039" stroke-width="1.066978" stroke-linecap="butt" stroke-linejoin="miter" stroke="rgb(94.901961%, 94.901961%, 94.901961%)" stroke-opacity="1" stroke-miterlimit="10" d="M 234.835938 139.320312 L 398.917969 139.320312 L 398.917969 131.5625 L 234.835938 131.5625 Z M 234.835938 139.320312 "/>
<path fill-rule="nonzero" fill="rgb(0%, 60%, 100%)" fill-opacity="0.698039" stroke-width="1.066978" stroke-linecap="butt" stroke-linejoin="miter" stroke="rgb(94.901961%, 94.901961%, 94.901961%)" stroke-opacity="1" stroke-miterlimit="10" d="M 234.835938 131.5625 L 406.550781 131.5625 L 406.550781 123.804688 L 234.835938 123.804688 Z M 234.835938 131.5625 "/>
<path fill-rule="nonzero" fill="rgb(0%, 60%, 100%)" fill-opacity="0.698039" stroke-width="1.066978" stroke-linecap="butt" stroke-linejoin="miter" stroke="rgb(94.901961%, 94.901961%, 94.901961%)" stroke-opacity="1" stroke-miterlimit="10" d="M 234.835938 123.804688 L 362.03125 123.804688 L 362.03125 116.046875 L 234.835938 116.046875 Z M 234.835938 123.804688 "/>
<path fill-rule="nonzero" fill="rgb(0%, 60%, 100%)" fill-opacity="0.698039" stroke-width="1.066978" stroke-linecap="butt" stroke-linejoin="miter" stroke="rgb(94.901961%, 94.901961%, 94.901961%)" stroke-opacity="1" stroke-miterlimit="10" d="M 234.835938 116.042969 L 409.09375 116.042969 L 409.09375 108.285156 L 234.835938 108.285156 Z M 234.835938 116.042969 "/>
<path fill-rule="nonzero" fill="rgb(0%, 60%, 100%)" fill-opacity="0.698039" stroke-width="1.066978" stroke-linecap="butt" stroke-linejoin="miter" stroke="rgb(94.901961%, 94.901961%, 94.901961%)" stroke-opacity="1" stroke-miterlimit="10" d="M 234.835938 108.285156 L 373.480469 108.285156 L 373.480469 100.527344 L 234.835938 100.527344 Z M 234.835938 108.285156 "/>
<path fill-rule="nonzero" fill="rgb(0%, 60%, 100%)" fill-opacity="0.698039" stroke-width="1.066978" stroke-linecap="butt" stroke-linejoin="miter" stroke="rgb(94.901961%, 94.901961%, 94.901961%)" stroke-opacity="1" stroke-miterlimit="10" d="M 234.835938 100.527344 L 373.480469 100.527344 L 373.480469 92.769531 L 234.835938 92.769531 Z M 234.835938 100.527344 "/>
<path fill-rule="nonzero" fill="rgb(0%, 60%, 100%)" fill-opacity="0.698039" stroke-width="1.066978" stroke-linecap="butt" stroke-linejoin="miter" stroke="rgb(94.901961%, 94.901961%, 94.901961%)" stroke-opacity="1" stroke-miterlimit="10" d="M 234.835938 92.765625 L 350.585938 92.765625 L 350.585938 85.007812 L 234.835938 85.007812 Z M 234.835938 92.765625 "/>
<path fill-rule="nonzero" fill="rgb(0%, 60%, 100%)" fill-opacity="0.698039" stroke-width="1.066978" stroke-linecap="butt" stroke-linejoin="miter" stroke="rgb(94.901961%, 94.901961%, 94.901961%)" stroke-opacity="1" stroke-miterlimit="10" d="M 234.835938 85.007812 L 328.960938 85.007812 L 328.960938 77.25 L 234.835938 77.25 Z M 234.835938 85.007812 "/>
<path fill-rule="nonzero" fill="rgb(0%, 60%, 100%)" fill-opacity="0.698039" stroke-width="1.066978" stroke-linecap="butt" stroke-linejoin="miter" stroke="rgb(94.901961%, 94.901961%, 94.901961%)" stroke-opacity="1" stroke-miterlimit="10" d="M 234.835938 77.25 L 313.699219 77.25 L 313.699219 69.492188 L 234.835938 69.492188 Z M 234.835938 77.25 "/>
<path fill-rule="nonzero" fill="rgb(0%, 60%, 100%)" fill-opacity="0.698039" stroke-width="1.066978" stroke-linecap="butt" stroke-linejoin="miter" stroke="rgb(94.901961%, 94.901961%, 94.901961%)" stroke-opacity="1" stroke-miterlimit="10" d="M 234.835938 69.492188 L 276.8125 69.492188 L 276.8125 61.734375 L 234.835938 61.734375 Z M 234.835938 69.492188 "/>
<path fill-rule="nonzero" fill="rgb(0%, 60%, 100%)" fill-opacity="0.698039" stroke-width="1.066978" stroke-linecap="butt" stroke-linejoin="miter" stroke="rgb(94.901961%, 94.901961%, 94.901961%)" stroke-opacity="1" stroke-miterlimit="10" d="M 234.835938 61.730469 L 276.8125 61.730469 L 276.8125 53.972656 L 234.835938 53.972656 Z M 234.835938 61.730469 "/>
<path fill-rule="nonzero" fill="rgb(0%, 60%, 100%)" fill-opacity="0.698039" stroke-width="1.066978" stroke-linecap="butt" stroke-linejoin="miter" stroke="rgb(94.901961%, 94.901961%, 94.901961%)" stroke-opacity="1" stroke-miterlimit="10" d="M 234.835938 53.972656 L 260.273438 53.972656 L 260.273438 46.214844 L 234.835938 46.214844 Z M 234.835938 53.972656 "/>
<path fill-rule="nonzero" fill="rgb(0%, 60%, 100%)" fill-opacity="0.698039" stroke-width="1.066978" stroke-linecap="butt" stroke-linejoin="miter" stroke="rgb(94.901961%, 94.901961%, 94.901961%)" stroke-opacity="1" stroke-miterlimit="10" d="M 234.835938 46.214844 L 251.371094 46.214844 L 251.371094 38.457031 L 234.835938 38.457031 Z M 234.835938 46.214844 "/>
<path fill-rule="nonzero" fill="rgb(0%, 60%, 100%)" fill-opacity="0.698039" stroke-width="1.066978" stroke-linecap="butt" stroke-linejoin="miter" stroke="rgb(94.901961%, 94.901961%, 94.901961%)" stroke-opacity="1" stroke-miterlimit="10" d="M 234.835938 38.453125 L 239.921875 38.453125 L 239.921875 30.695312 L 234.835938 30.695312 Z M 234.835938 38.453125 "/>
<path fill-rule="nonzero" fill="rgb(0%, 60%, 100%)" fill-opacity="0.698039" stroke-width="1.066978" stroke-linecap="butt" stroke-linejoin="miter" stroke="rgb(94.901961%, 94.901961%, 94.901961%)" stroke-opacity="1" stroke-miterlimit="10" d="M 234.835938 30.695312 L 237.378906 30.695312 L 237.378906 22.9375 L 234.835938 22.9375 Z M 234.835938 30.695312 "/>
<path fill="none" stroke-width="1.066978" stroke-linecap="butt" stroke-linejoin="miter" stroke="rgb(94.901961%, 94.901961%, 94.901961%)" stroke-opacity="1" stroke-miterlimit="10" d="M 234.835938 22.9375 L 234.835938 15.179688 Z M 234.835938 22.9375 "/>
<g clip-path="url(#clip-25)">
<path fill="none" stroke-width="1.066978" stroke-linecap="butt" stroke-linejoin="round" stroke="rgb(0%, 0%, 0%)" stroke-opacity="0.74902" stroke-miterlimit="10" d="M 234.835938 218.847656 L 234.835938 5.480469 "/>
</g>
<g clip-path="url(#clip-26)">
<path fill="none" stroke-width="1.066978" stroke-linecap="butt" stroke-linejoin="round" stroke="rgb(100%, 0%, 0%)" stroke-opacity="0.501961" stroke-dasharray="4.267913 4.267913" stroke-miterlimit="10" d="M 43.152344 108.285156 L 426.519531 108.285156 "/>
</g>
<path fill-rule="nonzero" fill="rgb(100%, 100%, 100%)" fill-opacity="1" stroke-width="0.533489" stroke-linecap="round" stroke-linejoin="round" stroke="rgb(0%, 60%, 100%)" stroke-opacity="1" stroke-miterlimit="10" d="M 267.910156 138.386719 L 328.957031 138.386719 L 328.894531 138.386719 L 329.144531 138.378906 L 329.386719 138.328125 L 329.617188 138.238281 L 329.832031 138.117188 L 330.023438 137.960938 L 330.1875 137.773438 L 330.320312 137.566406 L 330.414062 137.339844 L 330.476562 137.097656 L 330.496094 136.851562 L 330.496094 114.632812 L 330.476562 114.386719 L 330.414062 114.148438 L 330.320312 113.917969 L 330.1875 113.710938 L 330.023438 113.523438 L 329.832031 113.367188 L 329.617188 113.246094 L 329.386719 113.15625 L 329.144531 113.109375 L 328.957031 113.097656 L 267.910156 113.097656 L 268.09375 113.109375 L 267.847656 113.097656 L 267.601562 113.128906 L 267.363281 113.195312 L 267.140625 113.300781 L 266.9375 113.441406 L 266.757812 113.613281 L 266.609375 113.8125 L 266.496094 114.03125 L 266.417969 114.265625 L 266.378906 114.507812 L 266.375 114.632812 L 266.375 136.851562 L 266.378906 136.726562 L 266.378906 136.976562 L 266.417969 137.21875 L 266.496094 137.453125 L 266.609375 137.671875 L 266.757812 137.871094 L 266.9375 138.042969 L 267.140625 138.183594 L 267.363281 138.289062 L 267.601562 138.355469 L 267.847656 138.386719 Z M 267.910156 138.386719 "/>
<g fill="rgb(0%, 60%, 100%)" fill-opacity="1">
<use xlink:href="#glyph-0-0" x="283.433594" y="122.848633"/>
<use xlink:href="#glyph-0-1" x="288.433594" y="122.848633"/>
<use xlink:href="#glyph-0-2" x="294.433594" y="122.848633"/>
<use xlink:href="#glyph-0-3" x="298.433594" y="122.848633"/>
<use xlink:href="#glyph-0-2" x="303.433594" y="122.848633"/>
<use xlink:href="#glyph-0-4" x="308.433594" y="122.848633"/>
</g>
<g fill="rgb(0%, 60%, 100%)" fill-opacity="1">
<use xlink:href="#glyph-0-5" x="268.933594" y="135.137695"/>
<use xlink:href="#glyph-0-6" x="276.933594" y="135.137695"/>
<use xlink:href="#glyph-0-7" x="281.933594" y="135.137695"/>
<use xlink:href="#glyph-0-8" x="286.933594" y="135.137695"/>
<use xlink:href="#glyph-0-9" x="288.933594" y="135.137695"/>
<use xlink:href="#glyph-0-0" x="293.933594" y="135.137695"/>
<use xlink:href="#glyph-0-10" x="298.933594" y="135.137695"/>
<use xlink:href="#glyph-0-1" x="303.933594" y="135.137695"/>
<use xlink:href="#glyph-0-11" x="309.933594" y="135.137695"/>
<use xlink:href="#glyph-0-12" x="315.933594" y="135.137695"/>
<use xlink:href="#glyph-0-13" x="317.933594" y="135.137695"/>
<use xlink:href="#glyph-0-2" x="322.933594" y="135.137695"/>
</g>
<path fill-rule="nonzero" fill="rgb(100%, 100%, 100%)" fill-opacity="1" stroke-width="0.533489" stroke-linecap="round" stroke-linejoin="round" stroke="rgb(60%, 60%, 60%)" stroke-opacity="1" stroke-miterlimit="10" d="M 140.714844 138.386719 L 201.761719 138.386719 L 201.699219 138.386719 L 201.945312 138.378906 L 202.1875 138.328125 L 202.421875 138.238281 L 202.632812 138.117188 L 202.824219 137.960938 L 202.988281 137.773438 L 203.121094 137.566406 L 203.21875 137.339844 L 203.277344 137.097656 L 203.296875 136.851562 L 203.296875 114.632812 L 203.277344 114.386719 L 203.21875 114.148438 L 203.121094 113.917969 L 202.988281 113.710938 L 202.824219 113.523438 L 202.632812 113.367188 L 202.421875 113.246094 L 202.1875 113.15625 L 201.945312 113.109375 L 201.761719 113.097656 L 140.714844 113.097656 L 140.898438 113.109375 L 140.652344 113.097656 L 140.40625 113.128906 L 140.167969 113.195312 L 139.945312 113.300781 L 139.742188 113.441406 L 139.5625 113.613281 L 139.414062 113.8125 L 139.300781 114.03125 L 139.222656 114.265625 L 139.183594 114.507812 L 139.175781 114.632812 L 139.175781 136.851562 L 139.183594 136.726562 L 139.183594 136.976562 L 139.222656 137.21875 L 139.300781 137.453125 L 139.414062 137.671875 L 139.5625 137.871094 L 139.742188 138.042969 L 139.945312 138.183594 L 140.167969 138.289062 L 140.40625 138.355469 L 140.652344 138.386719 Z M 140.714844 138.386719 "/>
<g fill="rgb(60%, 60%, 60%)" fill-opacity="1">
<use xlink:href="#glyph-0-0" x="156.238281" y="122.848633"/>
<use xlink:href="#glyph-0-1" x="161.238281" y="122.848633"/>
<use xlink:href="#glyph-0-2" x="167.238281" y="122.848633"/>
<use xlink:href="#glyph-0-3" x="171.238281" y="122.848633"/>
<use xlink:href="#glyph-0-2" x="176.238281" y="122.848633"/>
<use xlink:href="#glyph-0-4" x="181.238281" y="122.848633"/>
</g>
<g fill="rgb(60%, 60%, 60%)" fill-opacity="1">
<use xlink:href="#glyph-0-5" x="141.738281" y="135.137695"/>
<use xlink:href="#glyph-0-6" x="149.738281" y="135.137695"/>
<use xlink:href="#glyph-0-7" x="154.738281" y="135.137695"/>
<use xlink:href="#glyph-0-8" x="159.738281" y="135.137695"/>
<use xlink:href="#glyph-0-9" x="161.738281" y="135.137695"/>
<use xlink:href="#glyph-0-0" x="166.738281" y="135.137695"/>
<use xlink:href="#glyph-0-10" x="171.738281" y="135.137695"/>
<use xlink:href="#glyph-0-1" x="176.738281" y="135.137695"/>
<use xlink:href="#glyph-0-11" x="182.738281" y="135.137695"/>
<use xlink:href="#glyph-0-12" x="188.738281" y="135.137695"/>
<use xlink:href="#glyph-0-13" x="190.738281" y="135.137695"/>
<use xlink:href="#glyph-0-2" x="195.738281" y="135.137695"/>
</g>
<g fill="rgb(30.196078%, 30.196078%, 30.196078%)" fill-opacity="1">
<use xlink:href="#glyph-1-0" x="18.21875" y="208.730469"/>
<use xlink:href="#glyph-1-1" x="24.21875" y="208.730469"/>
<use xlink:href="#glyph-1-0" x="26.21875" y="208.730469"/>
<use xlink:href="#glyph-1-0" x="32.21875" y="208.730469"/>
</g>
<g fill="rgb(30.196078%, 30.196078%, 30.196078%)" fill-opacity="1">
<use xlink:href="#glyph-1-0" x="20.21875" y="160.238281"/>
<use xlink:href="#glyph-1-1" x="26.21875" y="160.238281"/>
<use xlink:href="#glyph-1-2" x="28.21875" y="160.238281"/>
<use xlink:href="#glyph-1-3" x="33.21875" y="160.238281"/>
</g>
<g fill="rgb(30.196078%, 30.196078%, 30.196078%)" fill-opacity="1">
<use xlink:href="#glyph-1-0" x="19.21875" y="111.746094"/>
<use xlink:href="#glyph-1-1" x="25.21875" y="111.746094"/>
<use xlink:href="#glyph-1-3" x="27.21875" y="111.746094"/>
<use xlink:href="#glyph-1-0" x="32.21875" y="111.746094"/>
</g>
<g fill="rgb(30.196078%, 30.196078%, 30.196078%)" fill-opacity="1">
<use xlink:href="#glyph-1-0" x="20.21875" y="63.253906"/>
<use xlink:href="#glyph-1-1" x="26.21875" y="63.253906"/>
<use xlink:href="#glyph-1-4" x="28.21875" y="63.253906"/>
<use xlink:href="#glyph-1-3" x="33.21875" y="63.253906"/>
</g>
<g fill="rgb(30.196078%, 30.196078%, 30.196078%)" fill-opacity="1">
<use xlink:href="#glyph-1-5" x="19.21875" y="14.757812"/>
<use xlink:href="#glyph-1-1" x="24.21875" y="14.757812"/>
<use xlink:href="#glyph-1-0" x="26.21875" y="14.757812"/>
<use xlink:href="#glyph-1-0" x="32.21875" y="14.757812"/>
</g>
<path fill="none" stroke-width="1.066978" stroke-linecap="butt" stroke-linejoin="round" stroke="rgb(20%, 20%, 20%)" stroke-opacity="1" stroke-miterlimit="10" d="M 40.410156 205.269531 L 43.152344 205.269531 "/>
<path fill="none" stroke-width="1.066978" stroke-linecap="butt" stroke-linejoin="round" stroke="rgb(20%, 20%, 20%)" stroke-opacity="1" stroke-miterlimit="10" d="M 40.410156 156.777344 L 43.152344 156.777344 "/>
<path fill="none" stroke-width="1.066978" stroke-linecap="butt" stroke-linejoin="round" stroke="rgb(20%, 20%, 20%)" stroke-opacity="1" stroke-miterlimit="10" d="M 40.410156 108.285156 L 43.152344 108.285156 "/>
<path fill="none" stroke-width="1.066978" stroke-linecap="butt" stroke-linejoin="round" stroke="rgb(20%, 20%, 20%)" stroke-opacity="1" stroke-miterlimit="10" d="M 40.410156 59.792969 L 43.152344 59.792969 "/>
<path fill="none" stroke-width="1.066978" stroke-linecap="butt" stroke-linejoin="round" stroke="rgb(20%, 20%, 20%)" stroke-opacity="1" stroke-miterlimit="10" d="M 40.410156 11.296875 L 43.152344 11.296875 "/>
<path fill="none" stroke-width="1.066978" stroke-linecap="butt" stroke-linejoin="round" stroke="rgb(20%, 20%, 20%)" stroke-opacity="1" stroke-miterlimit="10" d="M 82.199219 221.589844 L 82.199219 218.847656 "/>
<path fill="none" stroke-width="1.066978" stroke-linecap="butt" stroke-linejoin="round" stroke="rgb(20%, 20%, 20%)" stroke-opacity="1" stroke-miterlimit="10" d="M 133.078125 221.589844 L 133.078125 218.847656 "/>
<path fill="none" stroke-width="1.066978" stroke-linecap="butt" stroke-linejoin="round" stroke="rgb(20%, 20%, 20%)" stroke-opacity="1" stroke-miterlimit="10" d="M 183.957031 221.589844 L 183.957031 218.847656 "/>
<path fill="none" stroke-width="1.066978" stroke-linecap="butt" stroke-linejoin="round" stroke="rgb(20%, 20%, 20%)" stroke-opacity="1" stroke-miterlimit="10" d="M 234.835938 221.589844 L 234.835938 218.847656 "/>
<path fill="none" stroke-width="1.066978" stroke-linecap="butt" stroke-linejoin="round" stroke="rgb(20%, 20%, 20%)" stroke-opacity="1" stroke-miterlimit="10" d="M 285.714844 221.589844 L 285.714844 218.847656 "/>
<path fill="none" stroke-width="1.066978" stroke-linecap="butt" stroke-linejoin="round" stroke="rgb(20%, 20%, 20%)" stroke-opacity="1" stroke-miterlimit="10" d="M 336.59375 221.589844 L 336.59375 218.847656 "/>
<path fill="none" stroke-width="1.066978" stroke-linecap="butt" stroke-linejoin="round" stroke="rgb(20%, 20%, 20%)" stroke-opacity="1" stroke-miterlimit="10" d="M 387.472656 221.589844 L 387.472656 218.847656 "/>
<g fill="rgb(30.196078%, 30.196078%, 30.196078%)" fill-opacity="1">
<use xlink:href="#glyph-1-5" x="74.199219" y="230.742188"/>
<use xlink:href="#glyph-1-2" x="79.199219" y="230.742188"/>
<use xlink:href="#glyph-1-0" x="84.199219" y="230.742188"/>
</g>
<g fill="rgb(30.196078%, 30.196078%, 30.196078%)" fill-opacity="1">
<use xlink:href="#glyph-1-6" x="127.078125" y="230.742188"/>
<use xlink:href="#glyph-1-0" x="133.078125" y="230.742188"/>
</g>
<g fill="rgb(30.196078%, 30.196078%, 30.196078%)" fill-opacity="1">
<use xlink:href="#glyph-1-7" x="177.957031" y="230.742188"/>
<use xlink:href="#glyph-1-0" x="183.957031" y="230.742188"/>
</g>
<g fill="rgb(30.196078%, 30.196078%, 30.196078%)" fill-opacity="1">
<use xlink:href="#glyph-1-0" x="231.835938" y="230.742188"/>
</g>
<g fill="rgb(30.196078%, 30.196078%, 30.196078%)" fill-opacity="1">
<use xlink:href="#glyph-1-7" x="279.714844" y="230.742188"/>
<use xlink:href="#glyph-1-0" x="285.714844" y="230.742188"/>
</g>
<g fill="rgb(30.196078%, 30.196078%, 30.196078%)" fill-opacity="1">
<use xlink:href="#glyph-1-6" x="330.59375" y="230.742188"/>
<use xlink:href="#glyph-1-0" x="336.59375" y="230.742188"/>
</g>
<g fill="rgb(30.196078%, 30.196078%, 30.196078%)" fill-opacity="1">
<use xlink:href="#glyph-1-5" x="379.472656" y="230.742188"/>
<use xlink:href="#glyph-1-2" x="384.472656" y="230.742188"/>
<use xlink:href="#glyph-1-0" x="389.472656" y="230.742188"/>
</g>
<g fill="rgb(20%, 20%, 20%)" fill-opacity="1">
<use xlink:href="#glyph-2-0" x="216.335938" y="244.138672"/>
<use xlink:href="#glyph-2-1" x="222.335938" y="244.138672"/>
<use xlink:href="#glyph-2-2" x="231.335938" y="244.138672"/>
<use xlink:href="#glyph-2-3" x="236.335938" y="244.138672"/>
<use xlink:href="#glyph-2-4" x="241.335938" y="244.138672"/>
<use xlink:href="#glyph-2-5" x="246.335938" y="244.138672"/>
<use xlink:href="#glyph-2-6" x="249.335938" y="244.138672"/>
</g>
<g fill="rgb(20%, 20%, 20%)" fill-opacity="1">
<use xlink:href="#glyph-3-0" x="11.599609" y="161.164062"/>
<use xlink:href="#glyph-3-1" x="11.599609" y="155.164062"/>
<use xlink:href="#glyph-3-2" x="11.599609" y="150.164062"/>
<use xlink:href="#glyph-3-3" x="11.599609" y="144.164062"/>
<use xlink:href="#glyph-3-4" x="11.599609" y="140.164062"/>
<use xlink:href="#glyph-3-5" x="11.599609" y="135.164062"/>
<use xlink:href="#glyph-3-6" x="11.599609" y="131.164062"/>
<use xlink:href="#glyph-3-4" x="11.599609" y="125.164062"/>
<use xlink:href="#glyph-3-5" x="11.599609" y="120.164062"/>
<use xlink:href="#glyph-3-7" x="11.599609" y="116.164062"/>
<use xlink:href="#glyph-3-3" x="11.599609" y="110.164062"/>
<use xlink:href="#glyph-3-2" x="11.599609" y="106.164062"/>
<use xlink:href="#glyph-3-7" x="11.599609" y="100.164062"/>
<use xlink:href="#glyph-3-4" x="11.599609" y="94.164062"/>
<use xlink:href="#glyph-3-8" x="11.599609" y="89.164062"/>
<use xlink:href="#glyph-3-9" x="11.599609" y="83.164062"/>
<use xlink:href="#glyph-3-10" x="11.599609" y="78.164062"/>
<use xlink:href="#glyph-3-2" x="11.599609" y="75.164062"/>
<use xlink:href="#glyph-3-8" x="11.599609" y="69.164062"/>
</g>
</svg>
